<svg id="Layer_1" data-name="Layer 1" xmlns="http://www.w3.org/2000/svg" viewBox="0 0 401.71 112.61" style="fill:var(--body-color)"><g id="HwyUJe.tif"><path d="M190.87,440.21c-1.19-.21-2.37-.47-3.56-.61-.35-.05-.73.21-1.26.38l-.31-1.68c-.75-.17-1.33-.32-1.92-.44a2.46,2.46,0,0,0-.81,0c-1.27.21-2.53.53-3.82.65-.53.06-1.09-.33-1.65-.4a6.63,6.63,0,0,0-1.41.11c-.29-1.22-.85-1.92-2.17-.69-.22.2-.84,0-1.27,0l-1.85-.12a5.67,5.67,0,0,1-.72-.09,6.3,6.3,0,0,0-1.42-.36c-1.25.05-2.1-.23-2-1.73,0-.17-.17-.37-.28-.61-1.1,1.82-1.13,1.83-2.59.84-.82.48-1.65,1.29-2.1-.45-.22-.86-.91-.53-1.56-.26a3,3,0,0,1-1.67.1c-.79-.13-1.65.36-2.38-.36a4.64,4.64,0,0,0-1.36-.65,3.27,3.27,0,0,1-4.09-.13,4.3,4.3,0,0,0-5.12-.23l-1.46-1.36c-1.75.91-1.75.91-2.54-.85-1.25,1.12-2.1.84-2.44-1.08-.61,1-.83,2.09-2.13,1.75-2.28-.58-4.58-1.09-6.85-1.69-.29-.08-.43-.62-.69-.9a1.7,1.7,0,0,0-.8-.58c-.22,0-.55.2-.76.4s-.64,1-1,1a12.26,12.26,0,0,1-3.19-.37c-.46-.12-.81-.69-1.23-1.08-2.15,1.64-4.48.31-6.74.6l-1.55-1.38c-1,.67-2,1.08-3.1.12a1.29,1.29,0,0,0-1.25,0,1.41,1.41,0,0,1-2.18-.07.43.43,0,0,0-.25-.1c-1.81-.31-3.61-.62-5.43-.89-2.22-.33-4.46-.61-6.68-1a3.21,3.21,0,0,1-1-.58c-1.44,1-1.48,1-2.54-.85L91,426.05l-.7-1.36c-2.62,1.27-4.19.81-6-1.83l-.56,1.48a3.81,3.81,0,0,0-1.28-.61c-.46,0-.92.29-1.34.15a35.81,35.81,0,0,0-4.12-.23c-1.43.07-2.39-.1-2.15-1.85,0-.16-.21-.35-.53-.63.08,1.79-.8,2.72-2.06,2.92l-4.36-.88a16,16,0,0,1-2.22.41c-1.42.06-2.85,0-4.28,0A2.06,2.06,0,0,1,59,422a13.81,13.81,0,0,1-.7-3.11,1.84,1.84,0,0,1,1.59-1.93c.91-.19,1.79-.52,2.68-.79.13,0,.35-.12.35-.17-.11-1.6,2.23-1.38,2.05-3.19,1,.89,1.81,1.13,2.78.27.38-.34,1.24-.25,1.87-.2,1.89.18,3.35-.73,4.85-1.68s2.87-1.61,4.32-2.41c1-.58,2.08-1.2,3.16-1.74s2.26-1,3.38-1.54,2.11-1,3.21-1.52l.49.38c1.71-.94,3.2-1.85,4.76-2.6s3.09-1.3,4.63-1.94c.79,1.56.79,1.56,1.94,1.16-.21-.26-.54-.49-.54-.73,0-.44,0-1.14.3-1.27a28.55,28.55,0,0,1,2.78-1c1.21-.44,2.38-1,3.62-1.37,1.41-.38,2.87-.54,4.82-.88a10.07,10.07,0,0,1,5.71-1.94,9.7,9.7,0,0,0,2.5-.8c1.21-.45,2.4-1,3.61-1.41.33-.12.72-.11,1.07-.21.71-.2,1.41-.45,2.12-.65a3.19,3.19,0,0,1,1.2-.2c1.74.25,3.13-.6,4.57-1.34a1.84,1.84,0,0,1,.9-.26,15.68,15.68,0,0,0,6.07-1.53,30.58,30.58,0,0,1,4.43-1c2.34-.52,4.68-1.06,7-1.57,1.53-.33,3.09-.57,4.62-1,1.72-.42,3.41-.93,5.12-1.41.17-.05.33-.15.51-.19,1.12-.28,2.24-.62,3.38-.8,2.36-.36,4.74-.62,7.11-1a15.63,15.63,0,0,0,1.82-.48c1.23,1.46,2.21-.5,3.43-.59.24,0,.44-.38.69-.42,2.09-.34,4.19-.58,6.27-1,2.27-.43,4.52-1,6.78-1.48.18,0,.35-.11.53-.14,1.91-.31,3.86-.48,5.73-1,2.41-.61,4.75-1.51,7.14-2.21,1.41-.41,2.88-.64,4.31-1,1.58-.43,3.14-.94,4.71-1.41a2,2,0,0,1,.67-.14,14.42,14.42,0,0,0,6.07-1.56,1.9,1.9,0,0,1,.68-.09,24.33,24.33,0,0,0,7.63-1.54,11.56,11.56,0,0,1,3.41.05c.09-1.4,1.5-.91,2.68-1.1,2-.32,4-.9,6-1.24,1.52-.25,3.1-.18,4.62-.42,2.74-.43,5.46-1,8.19-1.49l.13,0c2.47-.32,4.95-.6,7.41-1,1.6-.23,3.18-.63,4.78-.79,3.71-.35,7.44-.58,11.15-.91,2.2-.2,4.4-.42,6.58-.77,1.63-.25,2,1.05,2.32,2a4.81,4.81,0,0,1-.23,3c-.27.71-1.08,1.22-1.67,1.79a2.45,2.45,0,0,1-3.18.45c-.75-.08-1.5-.2-2.25-.21a5.63,5.63,0,0,0-1.29.32l-.46-1.31a8.38,8.38,0,0,1-1.53,1.47,5.79,5.79,0,0,1-2.28.75,10.26,10.26,0,0,1-2.4-.38c-1.37.94-6.83,1.5-8,.7-2.75,2-4.66,2.05-5.92-.15l-.58,2.3c-.92-.69-1.71-.89-2.63-.08-.28.24-1.1-.14-2-.28-1,1.79-3.09,1.32-5,1.34-1.31,0-2.5,0-3.46,1.18-.67.81-3.26.58-4.65-.27-1.66,2.32-4,2.33-6.65,1.8l-.58,1.22c-.94-.8-1.77-.54-2.79,0-.59.32-1.58-.09-2.69-.2-.68,1.05-2,1.17-3.58,1.29s-3.26.91-4.92,1.24a15,15,0,0,1-2.95,0c-.74,1.37-.82,1.39-2.16.56-1.71.68-3.33,1.82-4.94,1.8-1.26,0-2.33.52-3.56.52-1.54,0-3.08.77-4.61,1.22-.13,0-.24.17-.36.19-1.73.33-3.46.58-5.17,1s-3.49,1-5.26,1.38a7.56,7.56,0,0,1-1.93-.07c-1.2.53-2.57,1.55-4,1.66a11,11,0,0,0-4.29,1,1,1,0,0,1-.91-.07c-1.23-1.08-1.84-.57-2.15,1-2.08-1.71-3.18,0-4.59,1-1,.76-2.08,2.1-3.73,1-.19-.13-.78.23-1.12.47s-.41.72-.69.8c-1.23.37-2.48.67-3.73.92-1.71.35-3.44.62-5.15.95-.2,0-.49.23-.51.39-.22,1.28-1.2,1.05-2.1,1.21-1.47.27-2.9.77-4.57,1.23l-1.36-1.24c-.16.27-.34.42-.32.56.12,1.55-.75,1.72-2.08,2a65.14,65.14,0,0,0-7,2c-.79-.81-1.53.52-2.42.72a30.19,30.19,0,0,0-3.45,1.32c-1.29.46-2.6.86-4,1.32l-.43-.89a23.91,23.91,0,0,1-2.64,1.85c-.31.17-.93-.08-1.34-.28-.66-.31-1.3-.5-1.54.38s-.94,1-1.7,1c-1.88-.12-3.48.73-5.17,1.34a3,3,0,0,1-1.83-.23c-1.5.93-2.75,2.74-5.13,1.64-.75.51-2,.59-2.39,1.93a3,3,0,0,1-2-.11,1.48,1.48,0,0,0-2,.27,16.66,16.66,0,0,1-2.21,1.5,14.55,14.55,0,0,0,1.73.22c4.19,0,8.39-.21,12.56.08,2,.14,3.71-.65,5.57-.79,2.56-.2,5.15-.07,7.73-.08l8.55,0c1.32,0,2.85-.43,3.26,1.72.41-2.06,1.87-1.7,3.15-1.71,2.43,0,4.87-.06,7.31,0,.64,0,1.28.27,1.87.24,1.4-.08,2.8-.2,4.2-.21,5.75,0,11.5-.05,17.25,0a21.58,21.58,0,0,1,2.84.38,9.71,9.71,0,0,1,1.89-.38c5.29,0,10.6-.27,15.87.12,1.92.14,3.72,0,5.6,0,8.83-.22,17.67-.09,26.5,0a14.17,14.17,0,0,1,2.37.42,6.3,6.3,0,0,1,1.67-.43q6.21-.07,12.42,0a5.76,5.76,0,0,1,1.59.5,3.41,3.41,0,0,1,4.95,1.21c.17-2.33,1.73-1.69,2.94-1.7q10.29,0,20.57,0c.54,0,1.33.13,1.54.48s-.19,1-.38,1.78l1.22,1.43-.12.31-2.89-.4-.46-1c-1.44.9-2.83,1.06-3.89.29l-7.16,1.81-.42-.95H256c-1.68.6-1.69.6-2.57-1.21l-.74,1.45c-1.76-1.6-3.44-.4-5.07.2-1.16.44-1.93-.12-2.88-.46a2,2,0,0,0-1.64,0c-1.19,1.07-2.28,1.68-3.74.48-.27-.22-.8-.15-1.21-.15-1.7,0-3.4,0-5.1,0a15.44,15.44,0,0,1-1.67-.46,7.55,7.55,0,0,0-1.5,0l-2.29.16.18-2.06c-.64-.26-1.13-.15-1.28.89-.22,1.56-1.05,1.85-2.45,1.09a8.07,8.07,0,0,0-2.19-.52l-.15.39.53,1.05c-1.86.78-2.92-.8-4.58-1.11a2.11,2.11,0,0,1-3.12-.18l-1.66,1.38c-1.39-2-1.67-2-4.14,0a13.61,13.61,0,0,0-2.27-1.11,6.88,6.88,0,0,0-2.13-.06,15.22,15.22,0,0,0-1.65.25c-.7,1.42-.7,1.42-3.15-.39l-1.64,1.46-1.57-1.39a3.53,3.53,0,0,1-4.19,0c-3.11,2.49-3.66,1.41-6.78,0l-.58,1.48L182,413.91l-.76,1.59-.69-2.78-.78,1.7-1.32-.69a6.67,6.67,0,0,1-1,1.22,1.55,1.55,0,0,1-1.11.27,28.11,28.11,0,0,1-3-.76,6,6,0,0,1-1.08-.55l-3.58,1.2c-.66-.5-1.47-1-2.06-.13a12.88,12.88,0,0,1-2.64-.48c-1.65-.67-3.09-.88-4.44.68-.23.26-1.34-.11-2-.36-.43-.17-.75-.64-1.16-1-1,.75-1.69,1.16-2.3-.51s-2.45-1.62-3.85,0l.61.91-1.29,1.2-.47-2.32h-.39l-.41,2.06a6,6,0,0,1-2-.77c-1-.93-1.66-.56-2.41.24s-1.34,1.07-2.23.21a1.34,1.34,0,0,0-1.25,0,3.79,3.79,0,0,1-3.84.08c-1-.41-2.3-.08-3.47-.08l-.1.4-.53-1.31-.52-.39a15.77,15.77,0,0,1-1.63,2.15A1.89,1.89,0,0,1,129,416c-.92-.11-1.81-.4-2.72-.6-.73-.16-1.46-.29-2.44-.48-2,1.85-4.62,1.43-7.48.76l-.36-.77c-.58.45-1.36,1.29-1.57,1.17a12.21,12.21,0,0,1-2.14-2.06,6.25,6.25,0,0,0-1,1.42c-.56,1.43-1.3,1.74-2.69,1.08a6.38,6.38,0,0,0-1.47-.29c-2.6-.54-5.2.18-7.8.06a19.06,19.06,0,0,0-3.6.52l-.53-2.39C94.54,416,94,417.15,92.31,417c-1.27-.12-2.55-.15-3.82-.21l-.09-.46-.46,1L83.4,417l-.06.56c.92-.2,1.39.64,2.54.58,2.19-.11,4.41.78,6.64,1.12,1.35.2,2.76,0,4.11.25,2.2.34,4.36,1,6.57,1.22a15.21,15.21,0,0,0,2.28.32c3.23-.29,6.34.46,9.49.88.75.1,1.47.39,2.22.48a2,2,0,0,0,.9-.2l2,.49,2.06.55c.12,0,.29.17.36.13,1.89-1.2,3.57.67,5.47.37.84-.13,1.84.81,2.78,1.27a4,4,0,0,1,4.17-.24l1.55.31c.13,0,.26.08.4.1l6.68.86c2.51.31,5,.5,7.52.94a40,40,0,0,1,4.45,1.37,1.64,1.64,0,0,0,.94.09c1.87-.76,3.69.09,5.5.22a38.66,38.66,0,0,1,6,1.34,5,5,0,0,0,.67.14c2.14.29,4.3.48,6.42.88,1.77.34,3.49.92,5.23,1.4,0,0,.11.05.13,0,1.62-1.42,3.1.08,4.62.29a62.33,62.33,0,0,1,6.09,1.41,2.58,2.58,0,0,0,.26.08l6.14.89c.45.06,1.05,0,1.32.24a1.45,1.45,0,0,0,2.13.12,10,10,0,0,0,2,.47,21.32,21.32,0,0,1,7.35,1.58,12.44,12.44,0,0,0,3.65.8c1.17.06,1.89.39,2.1,2.12.56-1.95,1.18-2.08,2.59-1.35s3.12.59,4.67,1a19.49,19.49,0,0,1,2.88,1.31,3.5,3.5,0,0,1,3.75,0,4.76,4.76,0,0,0,2.14.35c1,0,2,0,1.92,1.73,1-.87,1.8-.55,2.68-.5s1.92.35,2.86.46a40.3,40.3,0,0,1,4.78,1.11l-.05.43.56-.43,2.6.49c1.64.32,3.29.59,4.91,1,.29.07.54.56.67.91a3.31,3.31,0,0,0,.51,1.25l.4-1c1.26.14,2.34.21,3.42.38,1.8.27,3.6.61,5.57.95l-.84,1.47a5.11,5.11,0,0,0,1.57-.24,4.22,4.22,0,0,1,4.26,0c.21.09.4.27.61.28a17.8,17.8,0,0,1,5.66,1.56,33.46,33.46,0,0,0,4.72,1c1,.22,2,.53,3,.84l7,2.28c.35.11.72.13,1.08.21s.84.13.87.27c.36,1.76,1.84,1.05,2.87,1.41,1.64.56,3.21,1.33,4.82,2,1.86.75,3.74,1.44,5.6,2.18.53.22,1,.54,1.54.79,1.2.57,2.41,1.12,3.62,1.68a7,7,0,0,1,1.94.92c1.43,1.38,3.37,1.63,5,2.48a3.29,3.29,0,0,1,1,3.36c-1,1.77-1.35,1.81-3.23.92-1.49-.72-3.06-1.25-4.59-1.89-.79-.32-1.55-.71-2.35-1a15.81,15.81,0,0,0-1.7-.43,45.12,45.12,0,0,1-4.27-1.86,11.42,11.42,0,0,0-3.91-.94c-1.57-.25-3.32-.65-2.88-3.21l-.41.21-.58,1.17c-1.89-.48-3.75-.92-5.58-1.45-1.16-.34-2.27-.83-3.4-1.23a2.76,2.76,0,0,0-1.17-.33,3,3,0,0,1-2.91-1.19c-.83-.14-1.35-.21-1.86-.31-.26,0-.52-.15-.79-.2a35,35,0,0,1-5-.95c-.75-.25-1.25-1.25-2-2-1.78.39-3.95,1.38-5.52-1-1.61,1-1.76,1-2.51-.71-1.61.89-1.61.89-2.66-.91L259.3,455,258,453.92l-1.9-.34c-.09,0-.17-.08-.25-.1-2.09-.3-4.2-.52-6.27-.92s-3.91-.92-5.87-1.4c-.13,0-.24-.12-.37-.16-1.67-.5-1.67-.5-2.34-1.47-1,1.7-1.14,1.68-3.19.73-1.13-.53-2.36-.86-3.65-1.32.7-.89.9-1.84-.29-2.54a1.72,1.72,0,0,0-1.11-.3c-.2,0-.46.58-.43.87.12,1.44-.71,1.69-1.81,1.44-2.26-.51-4.51-1.07-6.73-1.73-.4-.12-.63-.8-1-1.35l-.72,1.34c-.18-.22-.38-.35-.43-.52-.34-1.4-1.24-1-2.15-.71a6.63,6.63,0,0,1-1.76.3,10.49,10.49,0,0,1-1.8-.35c-.26-.89-.84-1.69-2.13-.41a.93.93,0,0,1-.79.09c-1.05-.39-2.05-.89-3.11-1.23a6.7,6.7,0,0,0-2.13-.31c-1.11,0-2.05,0-2.11-1.35l-2.16.13L203,443.4,201.22,442c-1.09,1-2-.07-2.72-.49-.9-.5-1.49-.52-2.05,0l-4.81-1.3c0-1.73-.39-2-1.88-1.32Z" transform="translate(-58.34 -359.84)"/><path d="M331.73,412c-1,.63-2,1.32-3.08,1.86a4.28,4.28,0,0,1-2.14.58c-1.65-.12-3.41.6-5-.51a.54.54,0,0,0-.5.07c-.8.82-1.48.35-2.13-.19-1.75,1.16-3,1-4.94-.8-.55.21-1.2,1.15-1.67-.19a3.31,3.31,0,0,1-4.58,1.3c-.42-.22-1.09-.54-1.38-.37-1.24.73-2.39-.08-3.57,0a13.49,13.49,0,0,0-1.89.49,5.06,5.06,0,0,1-1.29.06,13.38,13.38,0,0,1-1.39-.22l-.24.42-1.06-1.63.07-.71c-.23-1.28.26-1.84,1.62-1.83,6,.05,12,0,18,.05.94,0,1.83,0,2,1.28,0,.4.63.73,1,1.1,1.41-.78,2-2.67,4-2.44,1.59.19,3.27-.14,4.24,1.62,1.55-2.11,2.91-2,3.86.1Z" transform="translate(-58.34 -359.84)"/><path d="M331.71,412.05c.17,0,.45,0,.51-.15,1.07-1.84,2.86-1.5,4.53-1.5,2.34,0,4.69,0,7,0,1.09,0,2.16-.11,2.23,1.16a16.46,16.46,0,0,1,3.18-1.1c1.1-.16,2.58-.57,2.72,1.68,1.23-2.15,3.05-1.79,4.78-1.76,2,0,4,0,5.93.05a3.33,3.33,0,0,1,2.13.68c.57.65.08,1.42-1.31,2.48l-.52-2.45-2.63,2.48-1.57-1.42-1.05.51c-.2-.48-.36-.88-.53-1.28l-.3,0-.47,2.27c-1.56-1.22-2.37.45-3.68.58l-.64-1.48-1.63,1.5c-1.53-.76-3.09-.41-4.82-.21s-3.61,1.51-5.21-.28c-1.92.17-2.93-1.2-3.93-2.4a13.49,13.49,0,0,0-1.84.66,3.79,3.79,0,0,0-1.25,1c-.58.74-1.14,1.43-2.16,1.34l.51-2.34Z" transform="translate(-58.34 -359.84)"/><path d="M297,412.17l-.07.71c-.26.21-.53.42-.78.65s-.64.62-1,.94c-.26-.32-.54-.64-.8-1a2.59,2.59,0,0,1-.24-.46c-.87.64-1.76,1-2.58-.05l-1.61,1.37-.11-.34a6.79,6.79,0,0,1-1.52.29c-1,0-2-.16-3-.23a9.5,9.5,0,0,0-1.6,0c-.29,0-.67.44-.83.35-1.61-.89-3.18.57-4.74.07a15.08,15.08,0,0,1-3.69-1.48c-.49-.31-.56-1.39-.64-2.15a3,3,0,0,1,1.48-.48c6.52,0,13,0,19.55,0,.72,0,1.24.09,1.37,1C296.23,411.67,296.7,411.91,297,412.17Z" transform="translate(-58.34 -359.84)"/><path d="M403.81,410.39a3.31,3.31,0,0,0,.82-.41c1.54-1.44,3.7-1.7,4.81-1,2.16-.07,3.73-.2,5.27-.1.38,0,.71.8.92,1.07a30.14,30.14,0,0,1,3.15-1.18c1.68-.44,1.53,1.3,2.35,2l-1,1.11a1.72,1.72,0,0,0-2.51-.09c-.93.72-2.41.1-3.08-.84a1.43,1.43,0,0,0-1.3-.33c-.78.68-1.35.75-2.13,0-.23-.22-1,0-1.42.13A34.56,34.56,0,0,1,406,412c-1.13.22-1.87-.51-2.19-1.61Z" transform="translate(-58.34 -359.84)"/><path d="M376.86,410a14.77,14.77,0,0,1,2.35-.39c1.48,0,1.71.56.82,2-1.39-.81-2-.29-2,1.25,0,.24-1,.76-1.11.66-1.33-1.05-2.86-.38-4.26-.65a19.61,19.61,0,0,1-3.19-1,1,1,0,0,1-.32-.91,1.63,1.63,0,0,1,.94-.89,41.82,41.82,0,0,1,4.61-.45A10.38,10.38,0,0,1,376.86,410Z" transform="translate(-58.34 -359.84)"/><path d="M387.23,411.22c.24-.11.55-.16.7-.35.32-.38.53-1.17.84-1.2a11.57,11.57,0,0,1,3.81.1c.5.12.77,1.21,1.14,1.87-.65.38-1.3,1.08-1.86,1-1.4-.16-2.75-.62-4.11.13l-.5-1.58Z" transform="translate(-58.34 -359.84)"/><path d="M429.51,410.59l2.68-2.67.18.47c1,.11,2,.19,3,.36a4.09,4.09,0,0,1,1.41.56c.09.05,0,.77-.18.82-.5.16-1.19.39-1.56.17-1.51-.86-2.67.22-4,.53l-1.29.34Z" transform="translate(-58.34 -359.84)"/><path d="M421.52,408.78c.72.11,1.43.24,2.15.31.55.05,1.12,0,1.67,0s.85.05,1.28.07l2-.55c-.46,1-.75,1.66-1,2.3l-6.19-1.44Z" transform="translate(-58.34 -359.84)"/><path d="M400.06,410l.34,1.12c0,.09,0,.24,0,.26-.4.21-.93.66-1.19.54a8.22,8.22,0,0,1-1.91-1.43s.38-.85.66-.9a14.4,14.4,0,0,1,2.37,0Z" transform="translate(-58.34 -359.84)"/><path d="M368,412.61l-1,.93a1.92,1.92,0,0,1-1.27-2.36,1.21,1.21,0,0,1,.8-.69c.21-.05.58.31.75.57A15.25,15.25,0,0,1,368,412.61Z" transform="translate(-58.34 -359.84)"/><path d="M384,410.42c.42-1.54,1.65-.74,2.5-.76,1,0,.71.94.78,1.56l0,0-1.25-.58-1.36.46Z" transform="translate(-58.34 -359.84)"/><path d="M384,410.42l.69.66a5.48,5.48,0,0,1-.56.85,17.59,17.59,0,0,1-1.76-.95l.13-.42Z" transform="translate(-58.34 -359.84)"/><path d="M403.82,410.38h-2.34l-.17-.52,1.56-.83.94,1.36Z" transform="translate(-58.34 -359.84)"/><path d="M439,410.37l-1.31-1.43h2.67Z" transform="translate(-58.34 -359.84)"/><path d="M445.49,409c.69-.32,1.4-1.11,2.2.38H445.5Z" transform="translate(-58.34 -359.84)"/><path d="M441.55,408.91l1.05,1.33c-.48-.06-1,0-1.26-.19s-.13-.71-.17-1.09Z" transform="translate(-58.34 -359.84)"/><path d="M458.53,409.85l1.52-1.07c-.06.6,0,1.13-.17,1.34s-.76.11-1.16.15Z" transform="translate(-58.34 -359.84)"/></g></svg>