<svg id="Layer_1" data-name="Layer 1" xmlns="http://www.w3.org/2000/svg" viewBox="0 0 474.03 8.1" style="fill:var(--body-color)"><g id="Group_8" data-name="Group 8"><path id="Path_86" data-name="Path 86" d="M47.38,4.94c-.46.7-1.38.49-2.22.47a3.24,3.24,0,0,0-1,0,1.85,1.85,0,0,1-2.2-.34,6,6,0,0,1-1.45.36c-1.16,0-2.32-.15-3.48-.21a8.17,8.17,0,0,0-1.11.08l-.69-.44c-.49.61-1.12.63-2,.43a6.31,6.31,0,0,0-1.79.21,6.17,6.17,0,0,1-1,0,1.77,1.77,0,0,0-.65,0,6.1,6.1,0,0,1-3.23,0c-.15,0-.37-.16-.41-.13-1,.67-2,0-3,.07-1.2.11-2.42.25-3.63.31a4.18,4.18,0,0,1-1.2-.42,12.84,12.84,0,0,1-1.81.61c-.22,0-.6-.31-1-.53a5.16,5.16,0,0,0-1.17.23c-.8.36-1.25.22-1.43-.42A9.26,9.26,0,0,1,9,5.53a13.54,13.54,0,0,0-2.62.19A6.93,6.93,0,0,1,2.2,5c-.52-.25-.66-.93-1-1.43a4.18,4.18,0,0,1,3.27-.66c1.33.09,2.66.11,4,.07,1.78,0,3.57,0,5.35,0A8.52,8.52,0,0,1,16.1,2.9c1.17.4,2.21,0,3.3,0,.85,0,1.7-.06,2.55-.09.59,0,1.18,0,1.77,0,2.24,0,4.48.11,6.71.13,1,0,2-.09,3-.1s2.18,0,3.27,0,2.11-.16,3.15-.13c1.77.05,3.53.2,5.29.28.64,0,1.29,0,1.94,0l0-.17,1.09.63c.3-.59.83-.51,1.52-.46a10.11,10.11,0,0,0,2.8.08,5.43,5.43,0,0,1,1.65.22c.36-.15.73-.43.93-.38,1.5.43,3.08,0,4.56.28A12.12,12.12,0,0,0,63.05,3a41.65,41.65,0,0,1,4.17.09c1,0,2,0,2.93,0,1.6.05,3.19.15,4.79.2a7.66,7.66,0,0,0,2,0,27.46,27.46,0,0,1,3.39-.08A6.79,6.79,0,0,1,82,3.44a2.19,2.19,0,0,0,.51,0c.23,0,.46-.1.69-.11,2.09-.07,4.18-.17,6.28-.17,2.44,0,4.9.18,7.33.1,1.84-.07,3.66,0,5.48,0,1.29,0,2.54,0,3.83.08s2.73-.18,4.1-.22c1,0,2,.06,3.06.06.57,0,1.13,0,1.7-.06,1.2,0,2.41-.09,3.61-.11,1.52,0,3.05,0,4.57,0s2.85.12,4.28.14c.62,0,1.24-.13,1.87-.13a72.17,72.17,0,0,1,7.64.11,2.25,2.25,0,0,0,.93-.05c.75-.32,1.25-.26,1.4.25.84-.12,1.57-.28,2.32-.33,1.49-.09,3-.15,4.49-.15,1.67,0,3.34.1,5,.12.41,0,.83-.13,1.25-.13,1.53,0,3.06.08,4.59.08s3.32-.06,5-.1c.11,0,.28-.06.34,0,.6.42,1.3.13,1.95.17A35.5,35.5,0,0,0,170,2.72c.71,0,1.41,0,2.11.11a51.08,51.08,0,0,0,5.67-.05c2.91-.32,5.8.26,8.69-.07.78,0,1.57,0,2.35.08.93,0,1.86-.11,2.79-.11,1.14,0,2.28.13,3.41.14.57,0,1.13-.18,1.69-.22.36,0,.74.1,1.1.09,1.53,0,3.06-.13,4.6-.17a26.53,26.53,0,0,1,2.82,0,33.51,33.51,0,0,0,5,0c1-.08,2,.07,3,.09,2.37.05,4.73.11,7.1.11,1.13,0,2.26-.13,3.39-.15a4.93,4.93,0,0,1,1.13.23l0,.17c.26-.17.51-.46.79-.48,1-.07,2.07,0,3.1-.07,1.63-.11,3.21.35,4.9,0a18.22,18.22,0,0,1,3.75.07,10.87,10.87,0,0,0,1.14,0,13,13,0,0,1,1.39-.08c1.37.06,2.73.21,4.1.24,1,0,2-.11,3-.1.56,0,1.11.21,1.68.23a3.4,3.4,0,0,0,1.45-.16c1.26-.6,2.62-.23,3.9-.23a17.56,17.56,0,0,0,3-.1,18,18,0,0,1,3.28.09c.85,0,1.69,0,2.54,0,1,0,2,.06,3.06.07.69,0,1.39,0,2.09,0s1.18.06,1.77.07c1.75,0,3.49,0,5.24.06a3.81,3.81,0,0,1,.93.27c.25-.22.55-.63,1.21-.23.07,0,.28-.06.43-.06l3.15,0a5.61,5.61,0,0,0,1.16,0c.56-.16,1-.29,1.5.1.1.08.42,0,.64,0,.77,0,1.53-.09,2.29-.11,1.14,0,2.27,0,3.41-.06.19,0,.39-.05.58,0,2.24.06,4.47.18,6.7.2,1.58,0,3.15-.11,4.73-.17l.47,0c.89.07,1.79.22,2.68.21a18.29,18.29,0,0,1,2.59-.23c1.81.3,3.6-.27,5.34.05,1.05.2,2.16-.33,3.13.23a.17.17,0,0,0,.12,0c2-.47,4-.09,6-.09,1.63,0,3.26-.07,4.89,0s3,0,4.46.12a28.63,28.63,0,0,0,3.36-.39c1.09,0,2.19.12,3.29.15.73,0,1.46-.07,2.2-.06,1.2,0,2.41,0,3.62.07a36,36,0,0,0,5.09,0,22.22,22.22,0,0,1,2.58,0l5,0a40.46,40.46,0,0,0,4.8,0,35.59,35.59,0,0,1,6.2.1,5.52,5.52,0,0,0,.91-.11c.31,0,.69-.2.91-.11,1.6.62,3.3,0,5,.24a5.28,5.28,0,0,0,2.87-.09.72.72,0,0,1,.46,0c1.06.44,2.2,0,3.27.17a20.91,20.91,0,0,0,5.7-.12c.79,0,1.57,0,2.36.07,2,0,3.94,0,5.91,0,1.24,0,2.48.09,3.71.14l.06-.17.5.56a.78.78,0,0,0,.21,0c0-.41.42-.51.9-.48l4.24.21c.19,0,.43.11.57.06,1.47-.54,2.9,0,4.35,0,1,0,2-.17,3-.17a6.91,6.91,0,0,1,1.55.39c.38-.61,1.14-.54,2-.51,1.65.07,3.31.49,5,0a1.46,1.46,0,0,1,.59,0,53.26,53.26,0,0,0,6.92.3c1.86,0,3.72.13,5.59.18a9.08,9.08,0,0,0,1.28-.1c.16,0,.34-.12.45-.09,1.44.43,2.92-.08,4.41.12s2.84-.08,4.25,0c1,0,1.95-.27,2.94.18.42.19,1.21-.09,1.83-.1a60.09,60.09,0,0,1,7.35.06c1,.11,2-.12,3.05-.1,1.53,0,3.05.15,4.59.16,1.22,0,2.44-.12,3.66-.12s2.44.1,3.65.14c.53,0,.83.18.75.6a.68.68,0,0,1-.85.45l-.11,0a6.8,6.8,0,0,0-2.94-.1c-.68,0-1.35.11-2,.13-.83,0-1.67,0-2.51,0s-1.66,0-2.49,0a2.5,2.5,0,0,1-.72-.3,1.51,1.51,0,0,1-.21.23c-.81.64-1.58-.26-2.4,0s-1.64.19-2-.78c-.37.89-1,1-1.94.73a6.85,6.85,0,0,0-1.5,0l-5-.11a2,2,0,0,0-.69.06,3.12,3.12,0,0,1-2.47-.07c-.11,0-.24-.13-.31-.1-1,.29-2.17,0-3.06.19a13.54,13.54,0,0,1-2.59.13c-1.05.11-2.11.1-3.17.11a1.39,1.39,0,0,1-.85-.19c-.38-.44-.77-.24-1.23-.15a11.56,11.56,0,0,1-2,.3,11.26,11.26,0,0,1-2.46-.15,12.21,12.21,0,0,0-2.7-.3,2.51,2.51,0,0,1-.84.4,7.68,7.68,0,0,1-2-.11c-1.94-.47-3.86.15-5.79,0a2.32,2.32,0,0,1-.59,0c-1.68-.74-3.33.17-5,0A5.14,5.14,0,0,1,411,4.2a3.51,3.51,0,0,0-3,.27l-2-.87c-.6,1.23-2.07.5-3.23.57-.36,0-.8-.15-1.09-.06a3.16,3.16,0,0,1-3-.55,6.6,6.6,0,0,1-3.48.54c-1.55-.12-3.23.21-4.68-.1s-3,.2-4.51,0c-.92-.1-1.83-.19-2.75-.27a1.32,1.32,0,0,0-.71.05c-.54.41-1.16.22-1.78.21L376.48,4l-.07-.2c-.41,0-.78,0-1.14,0s-.92.13-1.38.15a11.68,11.68,0,0,1-3.53,0c-1.1-.35-2,.27-3-.1-.38-.14-1,.08-1.51.08-1.79,0-3.57,0-5.36,0A5.48,5.48,0,0,0,359.2,4c-.83.2-1.37.06-1.66-.57a1.08,1.08,0,0,0-.76-.4l.16.75c-.68.07-1.4.43-1.77-.11a14,14,0,0,1-1.8.36,11,11,0,0,1-3.14.06c-1.17-.26-2.27,0-3.41-.12a31.79,31.79,0,0,0-3.38,0c-1.51,0-3-.13-4.53-.2a2.3,2.3,0,0,0-.74,0,3,3,0,0,1-2,.06,7.08,7.08,0,0,0-1.95.08c-.19,0-.42.19-.54.15-1.42-.45-2.8.34-4.27,0a9.41,9.41,0,0,0-4.32,0A5.31,5.31,0,0,1,323.5,4l-3.89-.32c-.32.5-.72.54-1.48.28a9.7,9.7,0,0,0-4.22-.15c-.35,0-.71,0-1.06,0-.57,0-1.14.12-1.7.1-.85,0-1.68-.15-2.53-.22-.45,0-.91,0-1.35-.1s-1.17-.26-1.85-.42c-.24.43-.69.6-1.47.65-1.35.1-2.77,0-4,.17s-2.29-.37-3.69,0c-.53.43-.69.46-1.52-.12a1.16,1.16,0,0,0-1.58-.05A5.82,5.82,0,0,1,290.5,4,2.31,2.31,0,0,0,289,3.94a8,8,0,0,1-2.29.06c-.19,0-.42-.09-.54,0a3.87,3.87,0,0,1-2.47,0,27.89,27.89,0,0,0-3.4-.51,7.92,7.92,0,0,0-2,.41c-.36.07-.73.15-1.1.19-1.32.15-2.65.33-4,.41a9.21,9.21,0,0,1-2.67-.15,10,10,0,0,0-3.54,0c-.24-.48-.71-.55-1.35-.27a1.49,1.49,0,0,1-.66.12,16,16,0,0,0-4,.15,16.81,16.81,0,0,1-3.43-.18c-.59,0-1.19,0-1.78.1a13.94,13.94,0,0,1-1.7.09c-.9,0-1.79-.19-2.69-.28a.89.89,0,0,0-.43,0,2.56,2.56,0,0,1-2.32,0,1.3,1.3,0,0,0-.73,0,3.43,3.43,0,0,1-2,.18,9.4,9.4,0,0,0-3,.13,6.2,6.2,0,0,1-2.87-.14,7.17,7.17,0,0,0-1.91.12,15.22,15.22,0,0,1-4.57-.13,9.81,9.81,0,0,0-1.52-.24.65.65,0,0,0-.41.08c-.64.54-1.21.31-1.82-.11a1.61,1.61,0,0,1-1.84.14,1.94,1.94,0,0,0-1.4.08c-.44.44-.94.32-1.46.31a11.41,11.41,0,0,1-3.73-.16c-.18-.07-.51.08-.87.15l-.09-.47-1.11-.19.15.69-4.06.17a1.71,1.71,0,0,1-.45,0,11.7,11.7,0,0,0-5.1.12,7,7,0,0,1-2.1-.09c-.84-.07-1.68-.17-2.19-.22l-2.65.21a1.78,1.78,0,0,0-2.29-.17,1.68,1.68,0,0,1-.77.07c-1.11-.1-2.22-.22-3.41-.34-.32.64-1.21.47-1.92.53-1.18.08-2.39.07-3.58,0-.68,0-1.35-.2-2-.2a10,10,0,0,0-2.05.21,9.3,9.3,0,0,1-4.32-.34,9.66,9.66,0,0,1-4.34.31,7.08,7.08,0,0,0-3.51.1l-.78-.64a3.73,3.73,0,0,1-3.06.29,5.85,5.85,0,0,0-2.72.3,1.93,1.93,0,0,1-1.86-.34c-.58.17-1.12.33-1.66.47a1,1,0,0,1-.54,0c-.8-.51-1.64-.22-2.5-.13-.55.06-1.28-.43-1.64.34l-.32-.43c-.63,0-1.18-.09-1.74-.07-1,0-1.93.13-2.9.15-.49,0-1-.15-1.47-.13-.76,0-1.51.2-2.27.27-.55.05-1.1,0-1.65.05-.71,0-1.26-.05-1.53-.67l-.38.89-1-.54c-.13.08-.32.31-.5.31-.72,0-1.42-.14-2.14-.15a3.68,3.68,0,0,0-1,.18,4.63,4.63,0,0,1-3.49,0,.9.9,0,0,0-.54,0,4.77,4.77,0,0,1-3.26-.2c-.25.61-.92.55-1.61.54-1,0-2,0-3,.06-.55,0-1.11-.11-1.65-.06a19.77,19.77,0,0,0-3.25.11c-.48.12-1.24-.35-2-.59-.22.48-1,.4-1.71.44a12.2,12.2,0,0,1-2.7.06c-1-.16-1.84.07-2.75,0a3.75,3.75,0,0,0-2.58.26c-.2.13-.67,0-1,0a20,20,0,0,0-2.05.14A1.37,1.37,0,0,1,110,5.19c-.17.62-.66.67-1.29.51A5.37,5.37,0,0,0,106,5.53a2.94,2.94,0,0,1-2.72-.67l-.21,1-.46-.65-.07.22a12.41,12.41,0,0,1-1.91.29,11.7,11.7,0,0,1-1.94-.31c-.37.51-.82.5-1.13,0-1.08.09-2.06.21-3,.24a17,17,0,0,1-3.34-.08,3.66,3.66,0,0,0-2.75.27c-1.55-.22-3.29.43-4.47-.46l-3.18.41-.43-.33v.19a18.52,18.52,0,0,1-2.58.15c-1.06-.08-2.07.12-3.1.12s-2,0-3-.13c-.29,0-.53-.27-.82-.42a2.16,2.16,0,0,1-2.71-.28l-1,.66-.5-.42a1.24,1.24,0,0,1-1.74.26l-.08-.07c-.22-.16-.79-.07-1.2-.06-.57,0-1.15.11-1.71.07a5.43,5.43,0,0,0-2.08.17,11.44,11.44,0,0,1-3,.09c-.48,0-1-.13-1.44-.13-.87,0-1.74.42-2.63-.13-.2-.12-.8.1-1.22.14-1,.1-1.89-.25-2.9-.07C48.39,5.62,47.91,5.2,47.38,4.94Z"/></g></svg>