<svg id="Layer_1" data-name="Layer 1" xmlns="http://www.w3.org/2000/svg" viewBox="0 0 999.13 236.86"><path d="M243.7,485.5c-5-.3-13.3-.8-18.6-1.1-18.7-1-30.3-1.7-31.9-1.9-.9-.1-4.3-.5-7.7-.7s-6.9-.6-8-.8a46.58,46.58,0,0,0-5.3-.6,99.05,99.05,0,0,1-16.6-2.5c-1.8-.5-3.5-.7-3.7-.5s-.4.1-.2-.2-1.5-.6-5.5-.8a62.18,62.18,0,0,1-6.6-.5,3.73,3.73,0,0,1-1.1-2.2c-.3-2.1-.9-2.4-6-3.5a63.56,63.56,0,0,1-6.6-1.8c-1.7-.6-3.8-1.2-4.6-1.4-2.2-.5-2.2-1.7.1-3.9,2.4-2.4,4.3-3.3,8.1-4.2,2.5-.6,5.9-2.9,5.9-4.1,0-.4-2.3-1.2-5.5-1.9-.9-.2-3.7-.5-6.4-.8a46.74,46.74,0,0,1-7.8-1.3,46.91,46.91,0,0,0-9.4-1c-7-.2-10-1-10.4-2.9-.1-.6-1.5-1.7-3.3-2.6s-3-1.7-2.8-2,0-.3-.4-.2c-1.7.6-4.3-.7-5.2-2.5-1-2-.5-3.8,1-3.7.4,0,.8-.2.8-.4s1.6-.4,3.6-.5,3.7-.3,3.8-.6.6-.5,1.2-.5a1.73,1.73,0,0,0,1.3-.5,1.19,1.19,0,0,1,.9-.5c.3,0,.4.2.3.4s.4.4,1.3.4,1.6-.3,1.6-.7.3-.5.5-.4.5.1.5-.2c0-.8-1.4-1.2-3.8-.9a18.68,18.68,0,0,1-4.7-.4c-1.3-.4-2.7-.7-3.2-.8a17.72,17.72,0,0,1-1.7-.6,4.42,4.42,0,0,0-2-.2c-1.4.3-1.8-.4-.8-1.2.4-.4.8-.4.8-.2s.2.2.4-.1c.7-.9,2.8-1.8,2.8-1.3a.63.63,0,0,0,.5.6c.3,0,.5-.2.3-.4-.4-.6,3.9-.6,5,0a1.19,1.19,0,0,0,1.5-.1c.7-.7,2.9-.9,2.4-.3-.5.8,1.2.5,1.9-.3.5-.6,1-.6,2-.2,1.7.7,2.3.7,1.3,0-.6-.4-.3-.5,1.1-.5a52.2,52.2,0,0,0,5.9-.4c2.2-.3,4.6-.5,5.4-.5,2.3-.1,1.7-1.9-1.4-4-1.8-1.2-2.6-2.2-2.4-2.7s.5-.6.9-.3a1.94,1.94,0,0,0,1.7.1,12.31,12.31,0,0,1,3.1-.4,2.83,2.83,0,0,0,2.9-1.4c1.2-1.7,1.4-2.7.7-4.1-.3-.6-.3-.9,0-.7s.8-.6,1.2-1.6a5,5,0,0,1,1.4-2.3c.3-.2-.4-.4-1.5-.4-1.6-.1-1.9-.2-1.3-.6s.4-.5-.9-.5a5.86,5.86,0,0,1-2.6-.6c-.5-.3-3.1-1.4-5.8-2.6-5.4-2.3-8.5-2.9-20-3.7-8.8-.6-9.8-.7-11.1-1.5s-8.6-2.1-13.2-2.3a14.83,14.83,0,0,1-6.1-1.4,22.4,22.4,0,0,0-5-1.6c-2.9-.5-6.6-1.9-6.6-2.5a8.59,8.59,0,0,1,3.1-1.3c2.6-.8,4.8-.9,14.3-.7,7.5.2,11.8,0,13.2-.4,2-.6,3.9-.5,8.8.6a72.77,72.77,0,0,0,7.9.8,28.48,28.48,0,0,1,6.7.8,5.59,5.59,0,0,0,3,.2,8,8,0,0,1,2.4-.2c.9.3,17.1.5,19,.3a115,115,0,0,1,12.2-.7c2.7-.1,5.3-.4,5.6-.7.6-.5-.4-.9-2.1-.7-.4,0-.7-.2-.7-.5s-.3-.5-.8-.3a1.55,1.55,0,0,1-1.4-.5c-.5-.6-.7-.7-1.1-.1s-.5.5-.4,0-.4-.6-1-.4a.9.9,0,0,1-1.3-.7c-.2-.5-.1-1,.2-1.1.8-.3,2.2-1.6,2.2-2.2,0-.8-2.1-2.7-2.6-2.4-.3.2-.4-.1-.2-.5.2-.6,0-.7-.9-.5s-1.1.1-.8-.6c.5-1.3-.6-1.7-1.5-.6-.5.6-.7.7-.5.2.3-.9-2.1-2.4-3-1.8-.3.2-.4.1-.2-.3s.1-.6-.2-.6-.6.3-.6.8c0,1.1-1.1,1-1.1-.2,0-.8-.1-.8-.5.1a2,2,0,0,0-.3,1.3c.1.2-.3.3-.9.3-1.2.1-1.3-.4-.2-1.1.7-.5.2-.6-2.2-.5-1.8.1-2.9-.1-2.7-.4s-.2-.4-.8-.2-1.1,0-1.1-.4a.37.37,0,0,0-.6-.3c-.4.3-.5.1-.2-.6s.5-1.3.6-1.7c.2-1.2,1.6-1.6,3.3-.8.9.4,1.3.8.9.8-1.3.1-.7,1.1.7,1.1,1,0,1.3-.2,1.1-.8a.91.91,0,0,1,.3-1.1c.3-.2.3-.6-.1-1.2-.6-.7-.5-.8.2-.5a1.8,1.8,0,0,0,1.6-.2c.6-.4.6-.5-.2-.2s-.9.1-.6-1.2a3.76,3.76,0,0,1,.8-1.7c.8-.5,0-2.6-.9-2.3-.6.2-.7,0-.6-.7s-.1-1-.9-.9c-.6,0-.8,0-.4-.2s.6-.5.4-.7.2-.8.8-1.2.9-.9.7-1.1.1-.4.7-.3c.8,0,.9-.1.2-.5-.5-.3-.9-.3-1.2.1s-.5.5-.7.3.7-2.6,1.4-3.1,1.3-2.8.8-2.5c-.3.2-.8-.2-1.1-.7-.5-.9-.4-1,.8-.9.9.1,1.4-.1,1.3-.5s.1-.6.3-.6c1.1.2,1.7-.1,1.8-.8,0-.4.3-.8.6-.8s.4-.2.3-.5,0-.6.4-.7.3-.3-.3-.3-.9-.2-.9-.5-.8-.4-1.9-.4-1.7-.2-1.6-.4-.2-.5-.8-.5-1-.3-.8-.6.1-.5-.3-.5-.5-.4-.3-.9c.3-.7.2-.8-.5-.2s-.8.5-.8-.1c0-.4.5-.9,1.1-1.1a1.5,1.5,0,0,0,1.1-1.4c0-.9-.2-1.1-1.4-.9s-1.3.2-.5-.3.8-.7-.2-1.9a4.12,4.12,0,0,0-1.9-1.4c-1.6,0-.2-.6,2-.7,1.3-.1,2.1,0,1.9.3s-.1.5.2.5a1,1,0,0,0,.8-.4,3.29,3.29,0,0,1,2-.3,5.16,5.16,0,0,0,2.4-.3.66.66,0,0,1,1,.1c.2.4.7.4,1.3.1a4.31,4.31,0,0,1,2.2-.4c1.9.1,8.4-.3,8.9-.6a62.71,62.71,0,0,1,8-.8c.9,0,.9-2.5,0-3.2a3.73,3.73,0,0,1-.9-2.1c-.1-.9-.3-1.4-.7-1.2s-.5-.1-.4-.5-.3-.8-1.3-1.1c-1.7-.4-3-1.6-2.5-2.4.2-.3-.1-.4-.7-.2-.8.2-1.1,0-1-.7a1.52,1.52,0,0,0-1-1.2c-1.2-.3-1.4-1-.4-1.5.4-.2.5-.1.2.3s-.2.6,0,.6c1.1-.2,1.8.2,1.7.9,0,1.1,1.3.7,1.5-.5.1-.5,0-.9-.2-.8-1.5.2-2.3-.2-2.3-1.2,0-.6.3-.9.6-.8s.5-.2.6-.8.4-1.1.8-1.1a1.27,1.27,0,0,0,1.1-.8c.2-.4.1-.7-.2-.5s-.6,0-.7-.4-.2-.3-.1.3-.1.9-.4.9a.56.56,0,0,1-.5-.6c0-.3-.3-.2-.8.4s-.6,1.1-.2,1.4.1.3-.5.3c-1-.1-1.6-1.5-.7-1.5.2,0,.5-.7.7-1.6.3-1.3.6-1.6,1.7-1.6.7,0,1.3-.2,1.4-.5s.5-.5,1.1-.5c1.1,0,1.4.8.5,1.3s-.1,1.2,1.6,1.1c2.2-.1,2.7-.7.8-.8-1.5-.1-1.5-.1-.2-.4l1.3-.3-1.2-.7c-1.4-.8-1.5-1.7-.3-1.7.5,0,.7.3.5.5s-.1.5.2.5.6-.5.6-1,.4-1.1.9-1c.8,0,.8-.1-.1-.8s-1.1-.6-1.3-.1-.7.5-1.3.3c-.9-.4-.9-.4-.1-1.3a3.15,3.15,0,0,1,1.7-.9c.7,0,1-.6.9-1.7,0-.2.3-.4.8-.4s.7-.2.5-.5c-.4-.7.6-1.2,1.4-.8.4.2.3.6-.1,1.1s-.5.7,0,.7.8-.6.7-2.3c-.1-1.3.9-1.9,3.4-1.8,1.2,0,1.9-.2,1.9-.5s1-.6,3.1-.5a14,14,0,0,0,3.9-.4,3.77,3.77,0,0,1,2.2-.2,2.23,2.23,0,0,0,2.3-.5c.4-.5.5-.7.2-.5s-1.1-.6-1.9-1.9-1.5-2.1-1.5-1.8-.5,0-1.1-.5a2.92,2.92,0,0,1-1-1.6c0-.3.3-.2.5.4a2,2,0,0,0,1.4,1c.6,0,.7-.1.3-.6a1.74,1.74,0,0,1-.3-1.4c.3-.6.4-.6.7,0s.4.4.4-.3c0-1.3-1.2-3.1-1.8-2.6-.2.2-.3.1,0-.3a.61.61,0,0,1,.9-.3c.3.2.5.1.5-.2a1.19,1.19,0,0,0-.5-.9c-.7-.4,0-2,1.2-2.8.5-.4.8-.9.7-1.2s.1-.4.9-.1c1,.3,1.1.3.6-.3-.8-.9-.8-2.5,0-2.7.5-.2.7-1.1.5-3.2,0-.6-.5-.9-1.2-1s-.9-.2-.5-.4c.8-.5,1.4-2.1.8-2.5-.3-.2-.6,0-.7.4s-.4.5-.6.4-.1-.6.2-1c.4-.6.7-.6,1.6.3s1.1,1,1.1,0c0-.6.2-.7.3-.3a1,1,0,0,0,.8.7c.3,0,.4-.3.3-.8s-.1-.8.1-.7a8.8,8.8,0,0,0,1.9-.5,4.13,4.13,0,0,1,2-.3c.3.2.5,0,.5-.3s.2-.5.5-.3a.54.54,0,0,0,.8-.2,1.5,1.5,0,0,1,1.2-.5c1.5,0,2.4-.2,4.8-1.4a12.66,12.66,0,0,1,3-1.1,1.33,1.33,0,0,0,1-.6c.2-.7,5.2-.9,5.2-.2,0,.2.7.2,1.5,0a19.2,19.2,0,0,1,7.4.4c1.3.3,1.7.2,2.3-.9.4-.7.6-1.5.4-1.8-.4-.7-4-1.3-9.9-1.6a23.88,23.88,0,0,1-6.2-.9,3.55,3.55,0,0,0-1.6-.6c-.3,0-1.3,0-2.4-.1-1.5-.1-2-.4-2.2-1.2s0-1.1,1.2-1.1c1.4,0,1.4,0,.4-.8s-.5-.8,3.9-.5c2.7.1,4.9.4,4.9.6s.7.3,1.5.2c3.6-.3,9.1-.6,11.2-.6,1.2,0,2.1-.2,2-.4s.2-.5.7-.5a8.06,8.06,0,0,0,3.5-.6,6.4,6.4,0,0,0,2-2.4c1.1-2,2.8-3.1,3.2-2.1.1.4.4.4,1,0s.9-.4,1.1-.1c.4.6,8.9.8,9.5.2.2-.2.6-.1.9.2.7.6,3.9.6,4.8,0a4.25,4.25,0,0,1,2.4.2,100.38,100.38,0,0,0,11.6,1.1c5.4.3,12.9.7,16.7,1,20.5,1.3,26.7,1.6,39.5,1.9,10,.2,14,.5,13.9.9s.2.4.7,0c.7-.6,3.9-.6,13.1-.3,2.8.1,5.3.2,5.6.2s3.2-.2,6.4-.4a52.32,52.32,0,0,1,6.7-.1,1.19,1.19,0,0,0,1.2-.1,17,17,0,0,1,4.7-.4,54.26,54.26,0,0,0,7.5-.5,78.84,78.84,0,0,1,9.9-.5c3.7,0,8.5-.1,10.5-.2a13.14,13.14,0,0,1,4.7.4c.5.3.9.3.7.1s1.9-.4,4.9-.3a31.57,31.57,0,0,0,7-.4c1.4-.4,2-.4,2.3,0s.4.4.4,0,1.5-.6,3.9-.6c5.3,0,21.3.3,24.6.5,1.5.1,4.8.1,7.5,0,6.4-.3,16.2-.2,16.2.1s2.5.3,6.8-.3a20.18,20.18,0,0,1,5.3-.2c1.8.5,5.4.8,5.4.3,0-.2.7-.3,1.5-.3,14.9.4,43,.1,43.9-.4.2-.1.4,0,.4.2s.7.4,1.6.3a6.32,6.32,0,0,1,2.5.2c1.2.5,3.3.7,3,.3-.1-.2,3.9-.2,9,0s9.1.4,9.1.4a18.8,18.8,0,0,0,3.3.3c1.8.1,3.3,0,3.3-.2s.8-.1,1.9.1,2,.3,2.1.1,2.4-.3,5.1-.2c2.9.1,4.8-.1,4.8-.4s.2-.3.4.1c.5.7,4.5.8,5,.1.3-.3.4-.3.4,0s.9.5,2,.5a9.77,9.77,0,0,1,3.2.5,2.8,2.8,0,0,0,2.2,0c1-.5,3.2-.6,14.7-1,2.9-.1,7.7-.3,10.7-.5s9.5-.3,14.6-.2a109.08,109.08,0,0,0,11.4-.2c1.2-.2,7.6-.2,14.4-.1,15.8.3,27.7.1,32.4-.3,2.1-.2,6.5-.7,9.9-1s9-.8,12.5-1.1,7.5-.5,8.8-.7a41.18,41.18,0,0,1,12.3.6c2.2.5,9.1.9,19,1.1,8.5.2,15.7.5,15.9.6s9.2.6,20,1.1,21.6,1,23.9,1.2c13.1,1.1,23.1,1.6,44.9,2.1,3.1.1,6.4.2,7.4.3,2.2.3,12.4,1,22,1.6,20.8,1.3,28.5,1.7,42.5,2.2,8.5.3,16.3.8,17.3,1a53.91,53.91,0,0,0,6.1.6c4.3.3,9.3,1,9.9,1.4a28.88,28.88,0,0,0,4,.6,65.19,65.19,0,0,1,6.8,1c1.7.3,3.9.7,4.8.8a56.07,56.07,0,0,1,5.9,1.5c2.4.7,4.8,1.2,5.4,1.3s1.1.2,1.1.5a.68.68,0,0,0,.7.5,106.78,106.78,0,0,1,13.5,1.6,6.55,6.55,0,0,1,2.8,2.2c1.2,1.7,4.4,3.5,7.3,4.1,3.7.7,10,1.5,11.4,1.3.7-.1,1.4.1,1.3.5s.2.4.4.2.9.1,1.5.7a26,26,0,0,0,4.6,3,15.26,15.26,0,0,0,7.3,2.3c4,.3,4.7.8,4.2,2.9-.3,1.3-2.4,2.3-4.8,2.3a2.17,2.17,0,0,0-1.6.5,3.36,3.36,0,0,1-2.1.5c-2.8-.1-7.2.9-7.2,1.6,0,1.1,4,2.6,8,3,2.1.2,7.1.5,11.1.8,8,.6,8.8.7,9.2,1.8.6,1.6-6.9,7-12.9,9.3-2,.7-3,1.5-3.6,2.8-1.2,2.2-.7,3.2,2.5,5.2,1.2.8,2.2,1.8,2.2,2.2a2.45,2.45,0,0,0,.8,1.6c1.2,1.3.9,2.6-.9,3.6a34.41,34.41,0,0,0-4,3c-2,1.8-2.8,2.1-4.9,2.2-1.9.1-2.9.4-3.5,1.3a2.34,2.34,0,0,0-.7,1.6c.1.2,0,.4-.3.4s-.8.5-1.2,1.2-.5,1-.2.8c.6-.5,2,1.1,1.6,1.7-.2.3.1.4.6.3s0,.2-1.2.8a10.24,10.24,0,0,1-3.8,1,10.59,10.59,0,0,0-3.1.5c-1,.4-1.4.3-1.4-.2s-.2-.2-.6.2c-1,1.7-.1,3.6,2.5,5a10.5,10.5,0,0,1,3.3,2.6,6,6,0,0,0,2.9,2c4.3,1.4,4.9,4.2,1.1,5.1-2.3.6-3.5,2.3-2.8,4.2.3,1,.3,1.4-.1,1.4-1,0-2,1.3-1.9,2.6s0,1.3-4.5,2.2a11.08,11.08,0,0,0-3,1.6,24.28,24.28,0,0,1-3.1,2.1c-.8.4-1.5,1.1-1.5,1.5,0,1-2,2-4.3,2.1-2.5.2-3.6.8-3.7,2.2-.1,1.2,1.9,3.7,3,3.8.7,0,3.6,3.2,3.6,3.8,0,.9-2,1.5-5.7,1.7a54.45,54.45,0,0,0-6.4.7c-2.4.5-11.1,1.7-13.1,1.9-.8.1-1.2,2-.4,2,.2,0,.2.5-.1,1s-.4,1.2-.2,1.4c.7.7.3,7.5-.5,8.2a5.65,5.65,0,0,1-3.2.8c-2.2.1-3.6.9-3.2,1.7.1.2-.2.6-.6,1s-.8.5-.7.3-.3-.1-.6.2a.85.85,0,0,1-1.3,0c-.5-.4-1.1-.4-2.3,0-2.7,1-1.9,2.7,1.8,3.4,4.1.8,5,1.2,4.3,1.8-.2.2-4,.3-8.4.3-9.5,0-10.6.4-11.4,4.2a14.41,14.41,0,0,1-1.8,4.2,13.44,13.44,0,0,0-2.2,5.5c0,.3-.8.6-1.8.7-1.2.1-1.9.4-2.1,1.1s-.5.9-.8.7-.5-.1-.5.2-1.1,1.1-2.5,1.9c-3.8,2.1-4.4,3.9-1.6,5,1.3.5,1.4.9.4,3.2-.7,1.6,1,2.7,6.7,4.3,5.5,1.5,7.1,2.5,5.4,3.5-1,.6-8.2-.2-19.5-2.2-5.1-.9-7.3-.6-8.5,1.4s-2.4,2.5-6,2.7c-2.9.2-5.7,1.5-5.7,2.9,0,.8,2.3,1.6,5,1.8,2,.1,4.4,1.6,3.2,2a5.56,5.56,0,0,0-1.5,1c-.4.4-.8.6-.8.5,0-.6-3.3,1.3-3.9,2.3-.8,1.3-3.6,3-4.7,2.9-2.7-.2-6.4,0-6.4.5,0,.8,2.7,3.3,3.3,2.9.3-.2.4-.1.2.3a.65.65,0,0,0,.2.9.65.65,0,0,1,.2.9c-.2.3,0,.9.3,1.3,1,1.3,0,1.8-4.1,1.9-2,.1-4.8.4-6.1.6s-5.8.9-9.9,1.4a86.45,86.45,0,0,0-10.5,1.9,25.89,25.89,0,0,1-6.3.9,39.3,39.3,0,0,0-7.2.9c-3.7.9-4.9.9-22.5.2-10.2-.4-20.6-.9-23.1-1.1-6.5-.5-14.4-1.3-15.5-1.5-.5-.1-6.7-.5-13.8-.9-10.1-.5-14.4-.6-20.1,0-4,.4-11.2.7-16.2.7s-9.8.2-10.9.3c-3.7.4-16.4.9-23.8,1-4.1.1-11.5.2-16.5.4s-15,.3-22.4.3-14,0-14.9.1-6.9.2-13.4.2-12.5.1-13.3.2c-1.6.2-5.7.3-19.9.9-11.2.4-19.6,1-26.5,1.7-3,.3-6.4.6-7.5.6a19.82,19.82,0,0,0-3.6.4c-.9.2-3.1.5-4.9.7s-5.7.6-8.5,1.1-6.6,1-8.4,1.1-5,.4-7.2.6-5.4.5-7.2.6-5.8.5-9,.9-7.7.8-10.1.9-5.7.3-7.4.5-6,.3-9.6.3-8.3.1-10.5.3c-4.3.4-13.6.7-20.8.6a62.11,62.11,0,0,0-6.9.3c-1.3.2-10.4.3-20.2.2s-18.3-.1-19,0-5.8.2-11.5.3-11.5.1-13,.2-6.9.1-12,.2-11.4.2-13.8.3a49.53,49.53,0,0,1-5.1.1c-.3-.1-4,0-8.3.2s-10.1.4-13.1.5-6.2.2-7.2.3-5.1.2-9.1.3-7.3.2-7.5.3-3.3.2-6.9.3-7.1.3-7.7.4c-1.1.2-38.8-.1-55.1-.4-4-.3-12-.7-17-1Zm-108-68.6c.3,0,.1-.5-.5-1.1-.8-1-1.5-1.1-4.7-1.1-2,0-3.8.3-3.9.6-.3.8,3.4,1.8,6.2,1.7C134.2,416.9,135.5,416.9,135.7,416.9ZM149,388.1c0-.1-.2-.2-.5-.2a.47.47,0,0,0-.5.5c0,.3.2.4.5.2S149,388.3,149,388.1Zm-26.7-16.5c0-.1-.4-.4-.8-.5s-.7-.1-.5.2S122.3,372,122.3,371.6Zm6.4-16.8c-.5-.5-.6-.5-.3.3.2.5.5.8.6.7S129,355.1,128.7,354.8Zm4.4-6.3c-.5-.5-.6-.5-.3.3.2.5.5.8.6.7S133.4,348.9,133.1,348.5Zm-4-3.2c-.2-.3-.4-.5-.5-.5s-.2.2-.2.5a.47.47,0,0,0,.5.5C129.2,345.9,129.3,345.6,129.1,345.3Zm21.8-24.8a.89.89,0,0,0-1,0c-.2.2.1.3.7.3S151.3,320.7,150.9,320.5Zm-.1-1.4c-.8-.7-2.1-2.8-2-3.4,0-.2.4,0,.8.4,1,.9,1.7.3.8-.8-.7-.9-2.1-.2-2.2,1.1,0,.4-.2.6-.4.5s-.5.2-.5.8.2,1,.9,1.1,1,.3,1,.6.5.5,1.2.5c1-.1,1.1-.2.4-.8Zm-3.2-1.2a.79.79,0,0,1,.5-.5c.3-.2.5-.1.5.2s-.3.6-.5.5S147.6,318,147.6,317.9Zm9.7-10.8c0-.7,0-.9-.2-.5s-.5.5-.7.4-.3.1-.2.5c.4,1.1,1,1,1.1-.4Zm-2.7-.5c.6-.9-.1-1.1-.8-.3-.4.5-.5.8-.1.8a1.19,1.19,0,0,0,.9-.5Zm17.7-17.8c0-.1-.4-.4-.8-.5s-.8-.1-.8.2.3.5.8.5S172.3,288.9,172.3,288.8ZM82.5,428.3c0-.3.3-.6.6-.8s.5.1.5.5-.3.8-.6.8A.54.54,0,0,1,82.5,428.3Zm22.8-43.2a1.52,1.52,0,0,1,1.3-.3c.4.1.1.4-.6.5C105.1,385.6,104.9,385.5,105.3,385.1Zm7.6.3c-.5-.4-.6-.6-.1-.6a3.5,3.5,0,0,0,2.1-.6.75.75,0,0,1,1,.2c.2.4.1.5-.2.2s-.6-.1-.6.4C115,386.1,114.1,386.2,112.9,385.4Zm-2.7-1.3c.4-.4.8-.4,1.1-.1s.1.6-.6.6S109.7,384.6,110.2,384.1Zm13.6-7.8c0-.5.3-.7.5-.5a1.2,1.2,0,0,1,.5.8.54.54,0,0,1-.5.5C124,377.2,123.8,376.8,123.8,376.3Zm.8-8.9c.9-1.6,1-1.7.9-.4a2,2,0,0,1-.8,1.4C124.1,368.6,124.1,368.4,124.6,367.4Zm3.7-19.4c-.4-.3-.2-.5.8-.8,1.8-.4,2.1-.1.8.6a1.6,1.6,0,0,1-1.6.2Zm11.6-35.7a.89.89,0,0,1,1,0q.6.3-.3.3C140.1,312.6,139.8,312.5,139.9,312.3Zm1.7-2.1a.89.89,0,0,1,1,0q.6.3-.3.3C141.7,310.5,141.4,310.4,141.6,310.2Zm9.6-6.6c0-.6.1-.9.3-.7a.89.89,0,0,1,0,1C151.4,304.4,151.2,304.3,151.2,303.6Zm19.4-29.1c-.5-.3-.5-.5-.2-.5a1.35,1.35,0,0,1,.9.5C171.8,275.2,171.6,275.2,170.6,274.5Z" transform="translate(-50.1 -250.1)" style="fill:#ffb700"/></svg>