<svg id="X7" xmlns="http://www.w3.org/2000/svg" viewBox="0 0 1790.5 763.38"><g id="Logo"><path id="Path_6" data-name="Path 6" d="M149,450.29c0-10-7-18.07-15.57-18.07s-15.56,8.09-15.56,18.07,7,18.06,15.56,18.06S149,460.26,149,450.29Zm-15.57,16.89c-8,0-14.55-7.56-14.55-16.89s6.51-16.9,14.55-16.9S148,441,148,450.29s-6.52,16.89-14.56,16.89Z" transform="translate(-91 -68.31)" style="fill:#6f6f6f"/><path id="Path_7" data-name="Path 7" d="M142.66,450.29h-.5c0,5.59-3.91,10.12-8.73,10.12V461c5.1,0,9.23-4.8,9.23-10.71h0m-18,0c0-5.59,3.91-10.12,8.72-10.13v-.59c-5.1,0-9.23,4.8-9.23,10.72" transform="translate(-91 -68.31)" style="fill:#6f6f6f"/><g id="Group_2" data-name="Group 2"><path id="W" d="M140,459c-.23.25-.59.6-.82.8l2,3.66.74-.69-1.32-2.32-.11-.16.15.12,1.75,1,.63-.72-.88-2-.11-.18.14.14,2,1.53c.19-.27.38-.53.59-.86L141.66,457c-.2.3-.49.68-.68.93l1,2.19.09.14-.13-.11Z" transform="translate(-91 -68.31)" style="fill:#6f6f6f"/><path id="M" d="M144,450.74l1.93,1,.17.06H146l-2.58.1c0,.35-.07.71-.12,1.07l3.82-.16c.05-.5.08-1,.1-1.5l-2.11-1-.15,0,.15,0,2.11-1c0-.5,0-1-.1-1.5l-3.82-.16c.05.36.09.72.12,1.07l2.58.11.18,0-.17.06-1.93,1Z" transform="translate(-91 -68.31)" style="fill:#6f6f6f"/><path id="B_22d" d="M141,442.66c.52.57,1.13.9,1.7.32a1.23,1.23,0,0,0,.23-1.28v0h0a.82.82,0,0,0,.95-.36,1.2,1.2,0,0,0,.2-.81c-.05-.54-.37-1-1.46-2.1-.33-.34-.85-.84-1.19-1.14l-2.55,3.12C139.88,441.42,140.25,441.84,141,442.66Zm.62-4.08a17.51,17.51,0,0,1,1.5,1.6.88.88,0,0,1,.18.33.39.39,0,0,1-.25.46h0a.54.54,0,0,1-.49-.23c-.33-.33-1.43-1.55-1.43-1.55Zm-1,1.22,1.43,1.58a1.38,1.38,0,0,1,.26.36.45.45,0,0,1,0,.42.31.31,0,0,1-.34.16,1,1,0,0,1-.41-.31l-1.46-1.57Z" transform="translate(-91 -68.31)" style="fill:#6f6f6f"/></g><path id="Path_8" data-name="Path 8" d="M142.66,450.29h-9.23V439.57c5.1,0,9.23,4.79,9.23,10.7Z" transform="translate(-91 -68.31)" style="fill:#0066b1"/><path id="Path_9" data-name="Path 9" d="M133.43,461c-5.09,0-9.23-4.79-9.23-10.7h9.23Z" transform="translate(-91 -68.31)" style="fill:#0066b1"/></g><g id="Contour"><path d="M95,450H91c0-32.05,0-117.17,15.25-189.6.31-1.46.57-2.72.79-3.79,1.67-8.37,16.9-37.86,33.26-64.41C152.74,172,176,137,192.13,129.2c28.37-13.66,149.22-21.87,203.3-23.7,29-1,122,.19,229.71,1.55l82.18,1,0,4-82.19-1c-107.66-1.36-200.64-2.53-229.52-1.55-66.51,2.25-176.61,11.22-201.7,23.3-11.1,5.34-29.38,27.76-50.17,61.5-17.56,28.5-31.35,56.13-32.74,63.09-.22,1.08-.48,2.36-.79,3.84C95,333.25,95,418.07,95,450Z" transform="translate(-91 -68.31)" style="fill:#262626"/><path d="M1881.5,450.5h-4c0-64.34-9.78-132.32-27.54-191.42-14.64-48.72-33.73-87.17-48.63-98-29.55-21.4-129.71-44-233-52.63-31.57-2.63-235.19.09-414.84,2.49-84.79,1.13-164.88,2.19-215,2.52-42.25.28-100.77,0-184.16-.91l0-4c83.37.9,141.86,1.19,184.1.91,50.08-.33,130.17-1.39,215-2.52,179.74-2.4,383.47-5.12,415.23-2.47,105.62,8.8,204.45,31.25,235,53.37C1834.66,180.32,1881.5,308.47,1881.5,450.5Z" transform="translate(-91 -68.31)" style="fill:#262626"/><path d="M429.94,794.86c-15.22,0-27-.11-34.51-.36-54.08-1.83-174.93-10-203.3-23.7-16.1-7.75-39.39-42.8-51.83-63-16.36-26.55-31.59-56-33.26-64.41-.22-1.07-.48-2.33-.79-3.79C91,567.17,91,482,91,450h4c0,31.93,0,116.75,15.17,188.77.31,1.48.57,2.76.79,3.84,1.39,7,15.18,34.59,32.74,63.09,20.79,33.74,39.07,56.16,50.17,61.5,25.09,12.08,135.19,21,201.7,23.3,28.86,1,121.77-.19,229.34-1.54,26.94-.34,54.68-.69,82.37-1l0,4c-27.68.33-55.42.68-82.36,1C545.21,794,473.51,794.86,429.94,794.86Z" transform="translate(-91 -68.31)" style="fill:#262626"/><path d="M1501.81,796.58c-81.75,0-221.07-1.86-348.37-3.56-84.78-1.13-164.87-2.19-215-2.52-42.21-.28-100.71,0-184.1.91l0-4c83.41-.9,141.93-1.19,184.16-.91,50.1.33,130.19,1.39,215,2.52,179.65,2.4,383.27,5.12,414.84,2.49,103.29-8.61,203.45-31.23,233-52.63,14.9-10.79,34-49.24,48.63-98,17.76-59.1,27.54-127.08,27.54-191.42h4c0,142-46.84,270.18-77.83,292.62-30.55,22.13-129.38,44.57-235,53.37C1559.4,796.26,1535.48,796.58,1501.81,796.58Z" transform="translate(-91 -68.31)" style="fill:#262626"/></g><g id="Grille"><rect x="4" y="361.69" width="16" height="4" style="fill:#262626"/><rect x="4" y="348.69" width="18" height="4" style="fill:#262626"/><rect x="4" y="335.69" width="19.5" height="4" style="fill:#262626"/><rect x="5" y="322.69" width="19.5" height="4" style="fill:#262626"/><rect x="5.5" y="309.69" width="19.5" height="4" style="fill:#262626"/><rect x="6.5" y="296.69" width="19" height="4" style="fill:#262626"/><rect x="8" y="283.69" width="18.5" height="4" style="fill:#262626"/><rect x="12" y="270.69" width="14.5" height="4" style="fill:#262626"/><rect x="14.5" y="257.69" width="12" height="4" style="fill:#262626"/><rect x="18.5" y="244.69" width="8" height="4" style="fill:#262626"/><rect x="4" y="397.69" width="16" height="4" style="fill:#262626"/><rect x="4" y="410.69" width="18" height="4" style="fill:#262626"/><rect x="4" y="423.69" width="19.5" height="4" style="fill:#262626"/><rect x="5" y="436.69" width="19.5" height="4" style="fill:#262626"/><rect x="5.5" y="449.69" width="19.5" height="4" style="fill:#262626"/><rect x="6.5" y="462.69" width="19" height="4" style="fill:#262626"/><rect x="8" y="475.69" width="18.5" height="4" style="fill:#262626"/><rect x="12" y="488.69" width="14.5" height="4" style="fill:#262626"/><rect x="14.5" y="501.69" width="12" height="4" style="fill:#262626"/><rect x="18.5" y="514.69" width="8" height="4" style="fill:#262626"/></g><g id="Internal_lines" data-name="Internal lines"><path d="M95.43,448.88a3.83,3.83,0,0,1-1.39-.22l-.79-.31v-.85c0-.57,0-57.35,3-81.16,1.36-10.86,4.92-26.82,9.54-42.69,7.39-25.4,9.79-25.4,10.7-25.4a1.45,1.45,0,0,1,1.31.88c1.65,3.3,1.51,38,.35,67.15-1,23.83-3.34,64.87-8.66,72C102.56,447.51,97.7,448.88,95.43,448.88Zm20.51-146.76c-4,7.8-14.45,42.55-17.2,64.54-2.72,21.77-3,71.51-3,79.69,1.64-.15,5.66-1.48,11.75-9.6C115.6,425.94,117.79,318.42,115.94,302.12Z" transform="translate(-91 -68.31)" style="fill:#262626"/><path d="M1068.58,222.87l-2.15-.12c-1.61-.09-161.39-9-193.05-12-32.33-3-233.37-57.07-238.52-60.17-4.73-2.83-6.05-10.15-9.56-29.69-.6-3.35-1.27-7-2-11.15l2.46-.46c.76,4.11,1.43,7.82,2,11.17,3.27,18.2,4.63,25.74,8.38,28,5.58,3.11,206.55,56.93,237.48,59.83,29.6,2.77,171.58,10.79,190.8,11.87l-54-108.78,2.23-1.11Z" transform="translate(-91 -68.31)" style="fill:#262626"/><path d="M1411.2,228.76h-.72l-344-6,0-2.5,343.27,6c4-6.82,39.22-67.23,36.47-85.55-2.88-19.22-23.94-33.71-24.15-33.85l1.4-2.07a74.76,74.76,0,0,1,11.43,10c5.41,5.77,12.2,14.87,13.8,25.52,3,20.21-35.52,85.08-37.17,87.83Z" transform="translate(-91 -68.31)" style="fill:#262626"/><rect x="115.51" y="323.75" width="439.97" height="2.5" transform="translate(-131.52 -20.43) rotate(-7.7)" style="fill:#262626"/><path d="M950.75,137.45c-15.65,0-31.48-2-38-6-2.36-1.43-3.54-3.11-3.5-5,.18-8,34.36-9,47.51-8.76,12.75.28,34.14,1.79,34,8.82,0,2.14-1.5,4-4.31,5.55C979.89,135.68,965.39,137.45,950.75,137.45Zm1-17.29a189.73,189.73,0,0,0-26.08,1.65c-11,1.59-13.94,3.78-14,4.72,0,1.15,1.23,2.16,2.3,2.81,11.86,7.2,58.43,7.56,71.18.55,2-1.08,3-2.23,3-3.42h0c.06-2.7-11-5.81-31.55-6.26C955.07,120.18,953.43,120.16,951.79,120.16Z" transform="translate(-91 -68.31)" style="fill:#262626"/><path d="M1504.26,229.65c-39.38,0-90.55-.85-93.78-.9l0-2.5c1.2,0,120.11,2,136.83,0,16.53-1.95,54.33-30.79,58.11-36.45a1.38,1.38,0,0,0,.22-1.27c-1-3.18-10.27-6.91-17.06-9.64-2.92-1.18-5.69-2.29-7.68-3.28-7.87-3.94-200.66-17.89-463.46-21.87-163-2.47-304.81-2-395.11-1.09l0-2.5c90.31-.87,232.18-1.38,395.17,1.09,274.93,4.17,457,18.38,464.54,22.13,1.9,1,4.62,2,7.5,3.2,10.06,4,17.27,7.22,18.51,11.22a3.86,3.86,0,0,1-.53,3.39c-4.31,6.47-42.73,35.53-59.89,37.55C1541.88,229.42,1524.65,229.65,1504.26,229.65Z" transform="translate(-91 -68.31)" style="fill:#262626"/><path d="M644.52,153.67l0-2.5c.13,0,13.83-.26,38.1-.57l0,2.5C658.35,153.41,644.66,153.67,644.52,153.67Z" transform="translate(-91 -68.31)" style="fill:#262626"/><path d="M1636.25,450.53c-.2-7.81-4.88-191.58,6.2-208.71,4-6.13,22.48-18.45,61.61-33,39.36-14.63,60.86-17.08,67.87-14.5,16.85,6.2,71.82,43,71.82,256.17h-2.5c0-88.89-9.51-156.86-28.28-202-5.36-12.91-20.19-43.81-41.9-51.81-8.15-3-34.73,2.83-66.13,14.5-30.76,11.43-55.59,24.6-60.39,32-10.67,16.48-5.85,205.38-5.8,207.29Z" transform="translate(-91 -68.31)" style="fill:#262626"/><path d="M787.55,450h-2.5c0-72.93,8.48-127.09,14.1-162.93,3.72-23.74,6.18-39.42,3.59-45.31-3.06-6.93-32.87-19.24-74.18-30.63-39.67-10.94-74.36-16.77-82.49-13.86-11.55,4.14-27.46,39.31-40.53,89.6-14,53.7-22.29,114.68-22.29,163.13h-2.5c0-48.65,8.36-109.86,22.37-163.76,13.68-52.64,29.42-86.78,42.11-91.32,10.14-3.63,50.65,4.61,84,13.8a486.48,486.48,0,0,1,49.88,16.33c15.33,6.17,24,11.46,25.92,15.7,2.89,6.56.52,21.67-3.4,46.71C796,323.22,787.55,377.26,787.55,450Z" transform="translate(-91 -68.31)" style="fill:#262626"/><path d="M119.36,324.4l-1.72-1.8c.84-.81,84.6-80.8,128.31-102.22,26-12.77,132-22.65,192.88-27.4,77.28-6,159.67-9.89,163.25-7.65a1.41,1.41,0,0,1,.67,1.18l-2.5,0a1.12,1.12,0,0,0,.61,1c-4.2-1.5-80.67,1.59-163.35,8.08-140.19,11-179.5,21.66-190.46,27C203.69,243.87,120.2,323.6,119.36,324.4Z" transform="translate(-91 -68.31)" style="fill:#262626"/><path d="M117.51,306.77l-3.43-5.14.27-.63c.16-.37,16.25-37.23,36.29-75.46,27-51.51,48-80.85,62.36-87.18,33.86-14.94,78.09-14.12,78.53-14.11l2.61.06-1.69,2c-.45.54-11.23,13.23-17.39,16.31a116.43,116.43,0,0,1-11.3,4c-13.16,4.27-35.19,11.41-46.51,19.9-15.64,11.73-97.87,137.42-98.7,138.68Zm-.59-5.39.57.85c10.05-15.34,83.05-126.33,98.26-137.73,11.65-8.74,33.93-16,47.24-20.28,5.22-1.7,9.34-3,10.95-3.84,4.3-2.15,11.49-9.89,14.81-13.64-10.08.09-46.2,1.31-74.75,13.9C182,154.79,121.52,290.93,116.92,301.38Z" transform="translate(-91 -68.31)" style="fill:#262626"/><rect x="736.25" y="147.6" width="2.5" height="35.81" transform="translate(-47.9 395.7) rotate(-35.91)" style="fill:#262626"/><path d="M702.15,157c-8.38,0-17-.77-21.09-2.32l-1.47-.55,20.87-31.31,2.08,1.38-19.08,28.62c8.9,2.36,31,2.29,37.07-.24L727.34,136l2.32,1-7.18,17.43-.42.21C718.91,156.19,710.64,157,702.15,157Z" transform="translate(-91 -68.31)" style="fill:#262626"/><path d="M723.18,137.64c-10.42,0-22.41-1.44-23.9-7.86-1.25-5.41,4.44-16,6.94-20.35a120.31,120.31,0,0,1,20-25.59c9.07-8.66,18.17-13.91,26.32-15.2a23,23,0,0,1,19.74,5.93c1,.89,3.07,2.75-16.88,36.65h0c-.15.25-14.37,24.39-16.39,25.4l-.2.1-.21,0A143.35,143.35,0,0,1,723.18,137.64Zm33.41-66.83a23.61,23.61,0,0,0-3.61.29c-16.36,2.6-34.59,22.34-44.6,39.59-4.75,8.2-7.37,15.47-6.66,18.53,1.51,6.54,22.85,6.6,36.23,5.08,1.39-1.6,7.53-11.07,15.34-24.34h0c12-20.36,17.21-31.49,17.17-33.71A20.57,20.57,0,0,0,756.59,70.81Zm-18.81,63.67Z" transform="translate(-91 -68.31)" style="fill:#262626"/><path d="M532.75,450.5h-2.5c0-44.11,9.76-110,24.29-163.95,10.35-38.42,32.25-104,62.67-111.27,21.13-5.07,45.44,2.28,82.24,13.4,52.25,15.79,131.21,39.66,267.14,49.57,230.3,16.81,668.34,23.24,672.74,23.3l0,2.5c-4.4-.06-442.52-6.5-672.89-23.3-136.2-9.94-215.33-33.85-267.69-49.68-36.4-11-60.46-18.27-80.93-13.35C596.18,182.9,574.57,221.78,557,287.2,542.48,341,532.75,406.59,532.75,450.5Z" transform="translate(-91 -68.31)" style="fill:#262626"/><path d="M1822.75,450.5h-2.5c0-8.46-.45-16.33-.81-22.66-.42-7.42-.73-12.79-.17-15.59a8.47,8.47,0,0,1,2.43-4.42c1.5-1.68,3.37-3.77,4.56-11.52,1-6.18-.88-37.49-6.74-70.09-7.12-39.63-17.26-64.35-28.55-69.59-17.85-8.28-59.17,12.43-66.69,16.34,3.88,6.74,20.47,43.38,20.47,177.53h-2.5c0-147.32-20.55-177-20.75-177.25l-.85-1.16,1.25-.69c2-1.09,49.42-26.65,70.13-17,15.44,7.16,24.81,42.79,30,71.41,5.9,32.85,7.73,64.58,6.76,70.91-1.31,8.49-3.55,11-5.18,12.81a6,6,0,0,0-1.83,3.25c-.5,2.48-.19,8,.21,14.94C1822.3,434.06,1822.75,442,1822.75,450.5Z" transform="translate(-91 -68.31)" style="fill:#262626"/><path d="M969.64,135.53c0-.07-3.19-7.2-7.78-10-2.28-1.28-27-.87-30.8,1.05s-9.62,7.71-9.68,7.76l-1.76-1.76c.25-.25,6.19-6.17,10.32-8.24s30-2.87,33.2-.95c5.29,3.17,8.65,10.77,8.79,11.1Z" transform="translate(-91 -68.31)" style="fill:#262626"/><path d="M1386,141.64c-17.89,0-38-2.86-45.42-7.8-2.3-1.53-3.41-3.27-3.28-5.15.53-8,34.71-7.53,47.84-6.67,12.73.83,34,3.28,33.58,10.29h0c-.14,2.13-1.67,3.94-4.55,5.36C1408.69,140.39,1397.86,141.64,1386,141.64ZM1370.25,124c-5.89,0-11.48.24-16.26.72-11.06,1.11-14.1,3.17-14.16,4.11-.07,1.15,1.14,2.21,2.17,2.9,11.54,7.71,58,10.11,71.1,3.67,2-1,3.09-2.1,3.16-3.28.18-2.7-10.72-6.29-31.25-7.64C1380.06,124.19,1375.05,124,1370.25,124Z" transform="translate(-91 -68.31)" style="fill:#262626"/><path d="M1397.27,140.38c0-.07-2.87-7.34-7.34-10.29-2.21-1.38-26.89-2.05-30.81-.3s-9.95,7.28-10,7.34l-1.69-1.85c.27-.24,6.46-5.89,10.68-7.77s30.11-1.55,33.21.5c5.14,3.39,8.17,11.14,8.29,11.47Z" transform="translate(-91 -68.31)" style="fill:#262626"/><path d="M116.5,601.75c-.91,0-3.31,0-10.7-25.4-4.62-15.86-8.18-31.83-9.54-42.69-3-23.81-3-80.59-3-81.16v-.85l.79-.31c.6-.24,6.15-2,15.46,10.41,5.32,7.1,7.71,48.14,8.66,72,1.16,29.11,1.3,63.85-.35,67.15A1.45,1.45,0,0,1,116.5,601.75ZM95.75,453.65c0,8.18.27,57.92,3,79.69,2.75,22,13.17,56.74,17.2,64.54,1.85-16.3-.34-123.82-8.44-134.63C101.41,455.13,97.39,453.8,95.75,453.65Z" transform="translate(-91 -68.31)" style="fill:#262626"/><path d="M625.73,790.73l-2.46-.46c.76-4.1,1.43-7.8,2-11.15,3.51-19.54,4.83-26.86,9.56-29.69,5.15-3.1,206.19-57.14,238.52-60.17,31.66-3,191.44-11.92,193.05-12l2.15-.12-56,112.63-2.23-1.11,54-108.78c-19.22,1.08-161.2,9.1-190.8,11.87-19.09,1.79-96.32,21.5-128.64,29.89-57.18,14.85-106.3,28.52-108.84,30-3.75,2.24-5.11,9.78-8.38,28C627.16,782.91,626.49,786.62,625.73,790.73Z" transform="translate(-91 -68.31)" style="fill:#262626"/><path d="M1423.51,795.23l-1.4-2.06c.21-.15,21.27-14.64,24.15-33.86,2.75-18.32-32.45-78.73-36.47-85.55l-343.27,6,0-2.5,344.72-6,.37.62c1.65,2.75,40.2,67.62,37.17,87.83-1.6,10.65-8.39,19.75-13.8,25.52A74.76,74.76,0,0,1,1423.51,795.23Z" transform="translate(-91 -68.31)" style="fill:#262626"/><rect x="334.25" y="355.01" width="2.5" height="439.97" transform="translate(-370.3 762.05) rotate(-82.29)" style="fill:#262626"/><path d="M952.68,782.33c-15,0-43.27-1.51-43.43-8.8,0-1.89,1.14-3.57,3.5-5,12.62-7.66,60.13-8.06,73.69-.61,2.81,1.54,4.27,3.41,4.31,5.55h0c.15,7-21.24,8.54-34,8.82C955.56,782.31,954.18,782.33,952.68,782.33Zm-1.95-17.28c-15.2,0-30.56,1.9-36.68,5.61-1.07.65-2.33,1.66-2.3,2.81.07,3.3,20.14,6.86,45,6.32,20.57-.45,31.61-3.56,31.55-6.26h0c0-1.19-1-2.34-3-3.42C979.06,766.72,965,765.05,950.73,765.05Z" transform="translate(-91 -68.31)" style="fill:#262626"/><path d="M874.91,750.55c-59.62,0-111.44-.32-152.56-.71l0-2.5c90.31.87,232.16,1.38,395.11-1.09,262.8-4,455.59-17.93,463.46-21.87,2-1,4.76-2.1,7.68-3.28,6.79-2.73,16.08-6.46,17.06-9.64a1.38,1.38,0,0,0-.22-1.27c-3.78-5.66-41.58-34.5-58.11-36.45-16.72-2-135.63,0-136.83,0l0-2.5c4.9-.08,120.28-2,137.17,0,17.16,2,55.58,31.08,59.89,37.55a3.86,3.86,0,0,1,.53,3.39c-1.24,4-8.45,7.17-18.51,11.22-2.88,1.16-5.6,2.25-7.5,3.2-7.51,3.75-189.61,18-464.54,22.13C1028.75,750.09,946.24,750.55,874.91,750.55Z" transform="translate(-91 -68.31)" style="fill:#262626"/><path d="M682.58,749.4c-24.27-.31-38-.57-38.1-.57l0-2.5c.14,0,13.83.26,38.09.57Z" transform="translate(-91 -68.31)" style="fill:#262626"/><path d="M1765.11,706.57c-10.59,0-30.41-4-61-15.4-39.13-14.54-57.64-26.86-61.61-33-11.08-17.13-6.4-200.9-6.2-208.71l2.5.06c0,1.91-4.87,190.81,5.8,207.29,4.8,7.41,29.63,20.58,60.39,32,31.4,11.67,58,17.5,66.13,14.5,21.71-8,36.54-38.9,41.9-51.81,18.77-45.16,28.28-113.13,28.28-202h2.5c0,213.15-55,250-71.82,256.17A20.54,20.54,0,0,1,1765.11,706.57Z" transform="translate(-91 -68.31)" style="fill:#262626"/><path d="M652.6,706a23.4,23.4,0,0,1-7.37-.88c-12.69-4.54-28.43-38.68-42.11-91.32-14-53.9-22.37-115.11-22.37-163.76h2.5c0,48.45,8.33,109.43,22.29,163.13,13.07,50.29,29,85.46,40.53,89.6,8.12,2.91,42.82-2.92,82.49-13.86,41.31-11.39,71.12-23.7,74.18-30.63,2.59-5.89.13-21.57-3.59-45.31-5.62-35.84-14.1-90-14.1-162.93h2.5c0,72.74,8.47,126.78,14.07,162.54,3.92,25,6.29,40.15,3.4,46.71-1.87,4.24-10.59,9.53-25.92,15.7a486.48,486.48,0,0,1-49.88,16.33C701.4,699,668.6,706,652.6,706Z" transform="translate(-91 -68.31)" style="fill:#262626"/><path d="M591.48,715.31c-25.16,0-90.56-3.44-152.65-8.29C378,702.27,272,692.39,246,679.62,202.24,658.2,118.48,578.21,117.64,577.4l1.72-1.8c.84.8,84.33,80.53,127.69,101.78,11,5.37,50.27,16,190.46,27,82.68,6.49,159.15,9.59,163.35,8.08a1.12,1.12,0,0,0-.61,1l2.5,0a1.41,1.41,0,0,1-.67,1.18C601.38,715.11,597.63,715.31,591.48,715.31Z" transform="translate(-91 -68.31)" style="fill:#262626"/><path d="M290,775.76c-8,0-46.69-.73-77-14.12-14.37-6.33-35.35-35.67-62.36-87.18-20-38.23-36.13-75.09-36.29-75.46l-.27-.63,3.43-5.14,1,1.59c.83,1.26,83.06,126.95,98.7,138.68,11.32,8.49,33.35,15.63,46.51,19.9a116.43,116.43,0,0,1,11.3,4c6.16,3.08,16.94,15.77,17.39,16.31l1.69,2-2.61.06ZM116.92,598.62c4.6,10.45,65,146.59,97.08,160.74,28.55,12.59,64.67,13.81,74.75,13.9-3.32-3.75-10.51-11.49-14.81-13.64-1.61-.81-5.73-2.14-10.95-3.84-13.31-4.32-35.59-11.54-47.24-20.28-15.21-11.41-88.21-122.39-98.26-137.73Z" transform="translate(-91 -68.31)" style="fill:#262626"/><rect x="719.6" y="733.25" width="35.81" height="2.5" transform="translate(-381 832.45) rotate(-54.07)" style="fill:#262626"/><path d="M700.46,777.19l-20.87-31.31,1.47-.55c8.3-3.11,34.74-3.08,41,0l.42.21L729.66,763l-2.32,1-6.81-16.55c-6.08-2.53-28.17-2.59-37.07-.24l19.08,28.62Z" transform="translate(-91 -68.31)" style="fill:#262626"/><path d="M756.63,831.69a25.49,25.49,0,0,1-4-.33c-8.14-1.28-17.25-6.54-26.32-15.2a120.31,120.31,0,0,1-20-25.59c-2.5-4.32-8.19-14.94-6.94-20.35,2.53-11,35.6-7.4,39.37-7l.21,0,.2.1c2,1,16.24,25.15,16.39,25.4h0c19.95,33.91,17.88,35.76,16.88,36.65A23,23,0,0,1,756.63,831.69Zm-33.1-66.81c-10.62,0-20.78,1.46-21.81,5.9-.71,3.06,1.91,10.33,6.66,18.53,10,17.25,28.24,37,44.6,39.59a20.57,20.57,0,0,0,17.48-5.15c0-2.22-5.19-13.35-17.17-33.71-7.81-13.27-13.95-22.74-15.34-24.34A131.11,131.11,0,0,0,723.53,764.88Zm14.25.63Z" transform="translate(-91 -68.31)" style="fill:#262626"/><path d="M631.8,726.35a62.15,62.15,0,0,1-14.59-1.63c-30.42-7.3-52.32-72.85-62.67-111.27-14.53-54-24.29-119.84-24.29-164h2.5c0,43.91,9.73,109.54,24.21,163.3,17.61,65.41,39.22,104.3,60.83,109.48,20.47,4.92,44.53-2.35,80.93-13.35,52.36-15.83,131.49-39.74,267.69-49.68C1196.78,642.45,1634.9,636,1639.3,636l0,2.5c-4.4.06-442.44,6.49-672.74,23.3-135.93,9.91-214.89,33.78-267.14,49.57C670.79,720,649.71,726.35,631.8,726.35Z" transform="translate(-91 -68.31)" style="fill:#262626"/><path d="M1780.51,647.79c-23,0-56.92-18.27-58.61-19.19l-1.27-.69.87-1.16c.2-.28,20.75-29.93,20.75-177.25h2.5c0,134.15-16.59,170.79-20.47,177.53,7.52,3.91,48.84,24.63,66.69,16.34,11.29-5.24,21.43-30,28.55-69.59,5.86-32.6,7.7-63.91,6.74-70.09-1.19-7.75-3.06-9.84-4.56-11.52a8.47,8.47,0,0,1-2.43-4.42c-.56-2.8-.25-8.17.17-15.59.36-6.33.81-14.2.81-22.66h2.5c0,8.53-.45,16.44-.81,22.81-.4,7-.71,12.46-.21,14.94a6,6,0,0,0,1.83,3.25c1.63,1.82,3.87,4.32,5.18,12.81,1,6.33-.86,38.06-6.76,70.91-5.14,28.62-14.51,64.25-30,71.41A27.42,27.42,0,0,1,1780.51,647.79Z" transform="translate(-91 -68.31)" style="fill:#262626"/><path d="M951.37,777.68c-8.53,0-18.87-.78-21.43-2.06-4.13-2.07-10.07-8-10.32-8.24l1.76-1.76c.06,0,5.91,5.88,9.68,7.76s28.52,2.33,30.8,1c4.6-2.76,7.75-9.89,7.78-10l2.29,1c-.14.33-3.5,7.93-8.79,11.1C961.87,777.33,957,777.68,951.37,777.68Z" transform="translate(-91 -68.31)" style="fill:#262626"/><path d="M1370.29,778.44c-14.83,0-32.57-1.38-33-7.13-.13-1.88,1-3.62,3.28-5.15,12.27-8.21,59.72-10.67,73.59-3.83,2.88,1.42,4.41,3.23,4.55,5.36.45,7-20.85,9.46-33.58,10.29C1381.48,778.22,1376.11,778.44,1370.29,778.44Zm15.85-17.58c-17.42,0-37.16,2.72-44.14,7.38-1,.69-2.24,1.75-2.17,2.9.22,3.3,20.42,6,45.18,4.35,20.53-1.35,31.43-4.94,31.25-7.64h0c-.07-1.18-1.14-2.28-3.16-3.28C1407.94,762,1397.54,760.86,1386.14,760.86Z" transform="translate(-91 -68.31)" style="fill:#262626"/><path d="M1372.74,773.76c-6.53,0-12.71-.4-14.64-1.27-4.22-1.88-10.41-7.53-10.68-7.77l1.69-1.85c.06.06,6.16,5.62,10,7.34s28.6,1.08,30.82-.3c4.46-3,7.3-10.21,7.33-10.29l2.33.9c-.12.33-3.15,8.08-8.29,11.47C1389.59,773.13,1380.89,773.76,1372.74,773.76Z" transform="translate(-91 -68.31)" style="fill:#262626"/></g><g id="Seats"><g id="Row_3" data-name="Row 3"><path d="M1582.57,449.79h-1.5v-141c0-2.75-3.16-5-7.18-7.75a72.27,72.27,0,0,1-6.88-5.24,84.66,84.66,0,0,1-8.31-9.07c-2-2.42-4.49-5.43-5.3-5.43H1429c-6.73,0-7.63.62-8.65,16.85l-1.49-.1c1-15.73,1.76-18.25,10.14-18.25h124.4c1.45,0,3.12,1.94,6.46,6a83.81,83.81,0,0,0,8.15,8.9,70.88,70.88,0,0,0,6.74,5.13c4.37,3,7.82,5.44,7.82,9Z" transform="translate(-91 -68.31)" style="fill:#262626"/><path d="M1426.26,416.76v-1.5c50,0,125-5,133.68-13.17,4.88-4.58,8.41-25.84,7.88-47.39-.45-18-3.67-31.23-8.61-35.44-14.58-12.41-110.54-13.37-139.61-13.37v-1.5c16.78,0,49.38.3,79.2,2.27,34.48,2.29,55.13,6.14,61.38,11.46,7.59,6.45,8.92,27.7,9.14,36.54.48,19.54-2.51,43-8.35,48.52C1550.89,412.66,1466.89,416.76,1426.26,416.76Z" transform="translate(-91 -68.31)" style="fill:#262626"/><path d="M1627.5,434.14a2.54,2.54,0,0,1-1.15-.24c-2.11-1.06-4-5.52-6-10.23a58.12,58.12,0,0,0-3.62-7.66c-1.81-2.84-11-7.93-17.72-11.65-4.57-2.53-8.18-4.53-9.26-5.61-2.18-2.19-2.23-12.36-2-28.85,0-3.19.07-6.36.07-9.33s0-6.13-.07-9.32c-.18-16.49-.13-26.66,2-28.85,1.08-1.08,4.69-3.08,9.26-5.61,6.71-3.72,15.91-8.81,17.72-11.66a57.33,57.33,0,0,0,3.62-7.65c2-4.72,3.85-9.17,6-10.23.83-.41,2.08-.29,3.8.38,5.16,2,14.62,9.12,16.54,14.12,2.19,5.68,5.19,15.54,5.22,15.64l-1.44.44c0-.1-3-9.91-5.18-15.55-1.61-4.18-10.48-11.24-15.68-13.25-1.81-.7-2.44-.51-2.59-.44-1.61.81-3.54,5.41-5.25,9.47a58.79,58.79,0,0,1-3.73,7.88c-2,3.16-10.65,7.95-18.26,12.16-4.12,2.28-8,4.43-8.93,5.36-1.89,1.9-1.74,16.24-1.61,27.77,0,3.2.07,6.37.07,9.34s0,6.15-.07,9.35c-.13,11.52-.28,25.87,1.61,27.77.93.93,4.82,3.08,8.93,5.36,7.61,4.21,16.24,9,18.26,12.16a59.21,59.21,0,0,1,3.73,7.87c1.71,4.07,3.64,8.67,5.25,9.47.16.08.79.27,2.59-.43,5.2-2,14.07-9.07,15.68-13.26,2.17-5.63,5.16-15.44,5.18-15.54l1.44.44c0,.09-3,10-5.22,15.64-1.92,5-11.38,12.12-16.54,14.12A7.68,7.68,0,0,1,1627.5,434.14Z" transform="translate(-91 -68.31)" style="fill:#262626"/><path d="M1655.39,404.37c-2.51,0-4.88-.27-5.85-1.16-3.66-3.36-3.77-38.63-3.77-42.64s.11-39.28,3.77-42.63c2.09-1.92,10.65-1,13.22-.62,2.33.31,10,1.46,11.28,3.41,1.9,3,2.32,29.78,2.32,39.84s-.42,36.86-2.32,39.85c-1.24,1.95-9,3.1-11.29,3.41A61,61,0,0,1,1655.39,404.37Zm0-86.09c-2.66,0-4.36.3-4.87.76-1.59,1.46-3.28,16.51-3.28,41.53s1.69,40.08,3.28,41.53c.87.8,5.27,1.13,12,.24,6.31-.83,9.82-2.12,10.21-2.73,1.25-2,2.09-21.76,2.09-39s-.84-37.07-2.09-39c-.39-.61-3.9-1.9-10.21-2.73A55.91,55.91,0,0,0,1655.42,318.28Z" transform="translate(-91 -68.31)" style="fill:#262626"/><path d="M1553.4,619.79H1429c-8.38,0-9.15-2.52-10.14-18.25l1.49-.1c1,16.23,1.92,16.85,8.65,16.85h124.4c.81,0,3.3-3,5.3-5.43a84.66,84.66,0,0,1,8.31-9.07,72.27,72.27,0,0,1,6.88-5.24c4-2.79,7.18-5,7.18-7.75v-141h1.5v141c0,3.54-3.45,5.94-7.82,9a70.88,70.88,0,0,0-6.74,5.13,83.81,83.81,0,0,0-8.15,8.9C1556.52,617.85,1554.85,619.79,1553.4,619.79Z" transform="translate(-91 -68.31)" style="fill:#262626"/><path d="M1419.6,595.18v-1.5c29.07,0,125-1,139.61-13.37,4.94-4.21,8.16-17.46,8.61-35.44.53-21.55-3-42.81-7.88-47.39-8.68-8.16-83.71-13.17-133.68-13.17v-1.5c40.63,0,124.63,4.1,134.71,13.58,5.84,5.49,8.83,29,8.35,48.52-.22,8.83-1.55,30.09-9.14,36.54-6.25,5.32-26.9,9.18-61.38,11.46C1469,594.88,1436.38,595.18,1419.6,595.18Z" transform="translate(-91 -68.31)" style="fill:#262626"/><path d="M1627.5,612.56a2.54,2.54,0,0,1-1.15-.24c-2.11-1.06-4-5.51-6-10.23a58.12,58.12,0,0,0-3.62-7.66c-1.81-2.84-11-7.93-17.72-11.65-4.57-2.53-8.18-4.53-9.26-5.61-2.18-2.18-2.23-12.36-2-28.85,0-3.19.07-6.36.07-9.32s0-6.14-.07-9.33c-.18-16.49-.13-26.66,2-28.85,1.08-1.07,4.69-3.07,9.26-5.61,6.71-3.71,15.91-8.81,17.72-11.65a58.12,58.12,0,0,0,3.62-7.66c2-4.71,3.85-9.17,6-10.23.83-.41,2.08-.29,3.8.38,5.16,2,14.62,9.12,16.54,14.12,2.19,5.68,5.19,15.54,5.22,15.64l-1.44.44c0-.1-3-9.91-5.18-15.54-1.61-4.19-10.48-11.24-15.68-13.26-1.81-.7-2.44-.51-2.59-.43-1.61.8-3.54,5.4-5.25,9.47a59.21,59.21,0,0,1-3.73,7.87c-2,3.17-10.65,7.95-18.27,12.17-4.11,2.27-8,4.43-8.92,5.35-1.89,1.9-1.74,16.25-1.61,27.77,0,3.2.07,6.37.07,9.35s0,6.14-.07,9.34c-.13,11.53-.28,25.87,1.61,27.77.93.93,4.82,3.08,8.93,5.36,7.61,4.22,16.24,9,18.26,12.16a58.79,58.79,0,0,1,3.73,7.88c1.71,4.06,3.64,8.66,5.25,9.47.15.07.79.26,2.59-.44,5.2-2,14.07-9.07,15.68-13.25,2.17-5.64,5.16-15.45,5.18-15.55l1.44.44c0,.1-3,10-5.22,15.65-1.92,5-11.38,12.11-16.54,14.11A7.68,7.68,0,0,1,1627.5,612.56Z" transform="translate(-91 -68.31)" style="fill:#262626"/><path d="M1655.39,582.79c-2.51,0-4.88-.27-5.85-1.16-3.66-3.35-3.77-38.62-3.77-42.63s.11-39.28,3.77-42.64c2.09-1.91,10.64-1,13.21-.62,2.34.31,10,1.46,11.29,3.41,1.9,3,2.32,29.78,2.32,39.85s-.42,36.85-2.32,39.84c-1.24,1.95-9,3.1-11.28,3.41A61.24,61.24,0,0,1,1655.39,582.79Zm0-86.09c-2.66,0-4.36.3-4.87.77-1.59,1.45-3.28,16.5-3.28,41.53s1.69,40.07,3.28,41.53c.87.79,5.27,1.12,12,.23,6.31-.83,9.82-2.12,10.21-2.73,1.25-1.95,2.09-21.76,2.09-39s-.84-37.08-2.09-39c-.39-.61-3.9-1.9-10.21-2.73A56.16,56.16,0,0,0,1655.42,496.7Z" transform="translate(-91 -68.31)" style="fill:#262626"/><path d="M1682.55,619.79H1596a3,3,0,0,1-3-3v-4.75h-15.44a3,3,0,0,1-3-3V598.47h1.5v10.61a1.48,1.48,0,0,0,1.48,1.48h16.94v6.25a1.48,1.48,0,0,0,1.48,1.48h86.57a1.48,1.48,0,0,0,1.48-1.48V452a1.48,1.48,0,0,0-1.48-1.48H1582.31V449h100.24a1.49,1.49,0,0,0,1.48-1.49V282.76a1.48,1.48,0,0,0-1.48-1.48H1596a1.48,1.48,0,0,0-1.48,1.48V289h-16.94a1.48,1.48,0,0,0-1.48,1.48V301.1h-1.5V290.49a3,3,0,0,1,3-3H1593v-4.75a3,3,0,0,1,3-3h86.57a3,3,0,0,1,3,3V447.55a3,3,0,0,1-1,2.24,3,3,0,0,1,1,2.23V616.81A3,3,0,0,1,1682.55,619.79Z" transform="translate(-91 -68.31)" style="fill:#262626"/></g><g id="Row_2" data-name="Row 2"><path d="M1163.83,384.64c-8.51,0-14.22-.33-15.15-.76-4.77-2.25-7.7-40.38-7.7-66.73s2.93-64.48,7.7-66.72c4-1.91,98.6-1.61,119.29,17.74,7.56,7.08,7.54,23.8,7.51,45v8c0,21.17,0,37.9-7.51,45C1252,381,1192.31,384.64,1163.83,384.64Zm-1.11-133.51c-7.52,0-12.53.27-13.4.66s-2.86,5.44-4.61,21.61a430.38,430.38,0,0,0,0,87.51c1.75,16.17,3.72,21.19,4.61,21.61,4.08,1.79,97.82,1,117.62-17.48,7.09-6.63,7.07-23.89,7-43.88v-8c0-20,0-37.24-7-43.87C1251.39,254.72,1190.23,251.13,1162.72,251.13Z" transform="translate(-91 -68.31)" style="fill:#262626"/><path d="M1348.09,390.7a3,3,0,0,1-1.26-.22c-2-1-2.5-4.54-3.13-8.66-.5-3.31-1.07-7.06-2.45-9.23-1.81-2.84-11-7.93-17.72-11.65-4.57-2.54-8.19-4.54-9.26-5.61-2.19-2.19-2.23-12.36-2-28.85,0-3.19.07-6.36.07-9.33s0-6.13-.07-9.32c-.18-16.5-.14-26.67,2-28.85,1.07-1.08,4.69-3.08,9.25-5.61,6.72-3.72,15.92-8.81,17.73-11.66,1.38-2.17,2-5.92,2.45-9.23.63-4.11,1.16-7.67,3.13-8.65,1.54-.77,5.67.55,8.86,1.78,6.63,2.57,17.78,8.3,19.48,12.71,2.22,5.79,2.25,19.3,2.25,19.87h-1.5c0-.14,0-13.8-2.15-19.33-1.3-3.36-10.67-8.77-18.62-11.85-5.05-2-7.21-2.06-7.65-1.84-1.27.64-1.8,4.14-2.32,7.54-.55,3.62-1.12,7.37-2.67,9.81-2,3.16-10.64,7.94-18.26,12.16-4.11,2.28-8,4.43-8.92,5.36-1.9,1.9-1.74,16.24-1.61,27.77,0,3.2.07,6.37.07,9.34s0,6.15-.07,9.34c-.13,11.53-.29,25.88,1.61,27.77.93.93,4.81,3.09,8.92,5.36,7.62,4.22,16.25,9,18.26,12.17,1.55,2.44,2.12,6.18,2.67,9.81.52,3.39,1,6.9,2.32,7.53.44.23,2.61.12,7.65-1.84,7.95-3.08,17.32-8.49,18.62-11.85,2.12-5.53,2.15-19.19,2.15-19.32h1.5c0,.57,0,14.07-2.25,19.86-1.7,4.42-12.85,10.14-19.47,12.71C1353.16,389.67,1350,390.7,1348.09,390.7Z" transform="translate(-91 -68.31)" style="fill:#262626"/><path d="M1373.49,357c-2.3,0-4.5-.27-5.48-1.16-3.49-3.21-3.76-30.38-3.76-38.64s.27-35.43,3.76-38.63c1.92-1.76,8.62-1.1,11.41-.73,1,.13,9.7,1.34,11.09,3.52,2.29,3.6,2.32,34.53,2.32,35.84s0,32.24-2.32,35.85c-1.39,2.18-10.11,3.38-11.1,3.51A45.91,45.91,0,0,1,1373.49,357Zm0-78.09c-2.49,0-4,.32-4.5.76-1.93,1.77-3.28,17.21-3.28,37.53s1.35,35.76,3.28,37.53c.77.71,4.29,1.12,10.19.35,5.54-.73,9.52-2,10-2.84,1.17-1.84,2.08-17.23,2.08-35s-.91-33.2-2.08-35c-.51-.8-4.49-2.11-10-2.84A43.59,43.59,0,0,0,1373.53,278.86Z" transform="translate(-91 -68.31)" style="fill:#262626"/><path d="M1420.35,409.25h-1.5V250.41c0-5.2-45.66-21.57-71-22.23-20.16-.51-25.78,6.72-28.78,10.62a11.15,11.15,0,0,1-2,2.23c-3.4,2.43-13.52,3.9-22.26.76-4.25-1.53-9.53-6.33-15.13-11.41-5.93-5.39-12.06-11-17-12.59-20.58-6.79-88.95,2.22-97.68,5.93-9.14,3.88-13.54,11.84-15.17,27.47l-1.5-.16c1.7-16.25,6.36-24.56,16.09-28.7,8.81-3.74,77.91-12.83,98.73-6,5.24,1.73,11.49,7.41,17.54,12.9,5.48,5,10.66,9.68,14.62,11.1,8.79,3.16,18.27,1.31,20.89-.56a10.39,10.39,0,0,0,1.71-1.93c3.17-4.1,9.08-11.76,30-11.2,23.72.62,72.51,16.59,72.51,23.73Z" transform="translate(-91 -68.31)" style="fill:#262626"/><path d="M1382.15,407a6.15,6.15,0,0,1-4.52-1.89c-5.13-5.21-4.12-20.21-3.52-29.16l.12-1.89,1.5.1-.13,1.89c-.54,8.13-1.56,23.27,3.1,28a4.67,4.67,0,0,0,3.76,1.43l.08,1.5Z" transform="translate(-91 -68.31)" style="fill:#262626"/><path d="M1296.83,407.18h-1.5a108.48,108.48,0,0,0-3.21-25.83c-1-4.56-1.9-8.5-1.85-12.46.13-11.1.65-118.39.55-123.17-.1-4.57-1-5.39-11.36-15.44l-.5-.48,1-1.08.49.48c10.59,10.23,11.7,11.3,11.82,16.49.1,4.78-.42,112.11-.55,123.21,0,3.79.82,7.65,1.82,12.13A110.12,110.12,0,0,1,1296.83,407.18Z" transform="translate(-91 -68.31)" style="fill:#262626"/><path d="M1296.83,449.79h-1.5V407.18a1.75,1.75,0,0,0-1.75-1.75H1151.5a1.75,1.75,0,0,0-1.75,1.75v42.61h-1.5V407.18a3.25,3.25,0,0,1,3.25-3.25h142.08a3.25,3.25,0,0,1,3.25,3.25Z" transform="translate(-91 -68.31)" style="fill:#262626"/><path d="M1317,449.79h-1.5v-40.6a3.73,3.73,0,0,1,3.73-3.72h68.87V407h-68.87a2.23,2.23,0,0,0-2.23,2.22Z" transform="translate(-91 -68.31)" style="fill:#262626"/><rect x="1205.08" y="340.36" width="20.25" height="1.5" style="fill:#262626"/><path d="M1428.39,449.79h-1.5c0-12.33-.39-23-1.21-32.72-.57-6.87-12.67-10.38-24.41-10.81-19.77-.73-31.46,5.5-32.45,11.74-1.53,9.65-1.53,17.51-1.53,31.79h-1.5c0-14.36,0-22.26,1.55-32,1.12-7,13.18-13.77,34-13,11.49.42,25.15,3.87,25.85,12.18C1428,426.67,1428.39,437.42,1428.39,449.79Z" transform="translate(-91 -68.31)" style="fill:#262626"/><path d="M1163.84,649.9c-8.51,0-14.23-.32-15.16-.76-4.77-2.24-7.7-40.37-7.7-66.72s2.93-64.48,7.7-66.73c4-1.9,98.6-1.61,119.29,17.75,7.56,7.07,7.54,23.8,7.51,45v8c0,21.18,0,37.9-7.51,45C1252,646.3,1192.32,649.9,1163.84,649.9Zm-1.12-133.5c-7.52,0-12.53.27-13.4.65s-2.86,5.44-4.61,21.61a430.38,430.38,0,0,0,0,87.51c1.75,16.17,3.72,21.2,4.61,21.61,4.08,1.8,97.82,1.05,117.62-17.48,7.09-6.63,7.07-23.89,7-43.87v-8c0-20,0-37.25-7-43.88C1251.39,520,1190.23,516.4,1162.72,516.4Z" transform="translate(-91 -68.31)" style="fill:#262626"/><path d="M1348.09,656a2.87,2.87,0,0,1-1.26-.23c-2-1-2.5-4.54-3.13-8.65-.5-3.31-1.07-7.06-2.45-9.23-1.81-2.85-11-7.94-17.72-11.66-4.57-2.53-8.19-4.53-9.26-5.61-2.19-2.18-2.23-12.36-2-28.85,0-3.19.07-6.36.07-9.32s0-6.14-.07-9.33c-.18-16.49-.14-26.66,2-28.84,1.07-1.08,4.69-3.08,9.26-5.62,6.71-3.72,15.91-8.81,17.72-11.65,1.38-2.17,2-5.92,2.45-9.23.63-4.12,1.16-7.67,3.13-8.65,1.54-.77,5.67.54,8.86,1.78,6.63,2.57,17.78,8.29,19.48,12.71,2.22,5.79,2.25,19.29,2.25,19.86h-1.5c0-.13,0-13.79-2.15-19.32-1.3-3.36-10.68-8.77-18.62-11.85-5.05-2-7.22-2.06-7.65-1.84-1.27.63-1.8,4.14-2.32,7.53-.55,3.63-1.12,7.37-2.67,9.81-2,3.17-10.64,8-18.26,12.17-4.11,2.27-8,4.43-8.92,5.36-1.9,1.89-1.74,16.24-1.61,27.77,0,3.19.07,6.36.07,9.34s0,6.14-.07,9.34c-.13,11.53-.29,25.87,1.61,27.77.93.93,4.81,3.08,8.92,5.36,7.62,4.22,16.25,9,18.26,12.16,1.55,2.44,2.12,6.19,2.67,9.81.52,3.39,1,6.9,2.32,7.54.44.22,2.6.11,7.65-1.84,8-3.1,17.36-8.6,18.62-11.85,2.12-5.53,2.15-19.19,2.15-19.33h1.5c0,.57,0,14.08-2.25,19.87-1.7,4.41-12.85,10.14-19.48,12.71C1353.16,654.94,1350,656,1348.09,656Z" transform="translate(-91 -68.31)" style="fill:#262626"/><path d="M1373.49,622.21c-2.3,0-4.5-.27-5.48-1.16-3.49-3.2-3.76-30.38-3.76-38.63s.27-35.43,3.76-38.64c1.92-1.76,8.62-1.09,11.41-.72,1,.13,9.7,1.33,11.09,3.52,2.29,3.6,2.32,34.52,2.32,35.84s0,32.24-2.32,35.84c-1.39,2.18-10.11,3.39-11.1,3.52A48.06,48.06,0,0,1,1373.49,622.21Zm0-78.09c-2.49,0-4,.33-4.5.77-1.93,1.77-3.28,17.2-3.28,37.53s1.35,35.76,3.28,37.53c.77.71,4.29,1.12,10.19.34,5.54-.73,9.52-2,10-2.83,1.17-1.84,2.08-17.23,2.08-35s-.91-33.2-2.08-35c-.51-.8-4.49-2.11-10-2.84A45.42,45.42,0,0,0,1373.53,544.12Z" transform="translate(-91 -68.31)" style="fill:#262626"/><path d="M1238.89,685.7c-28.55,0-68-5.69-74.55-8.46-9.73-4.14-14.39-12.45-16.09-28.7l1.5-.16c1.63,15.63,6,23.59,15.17,27.48,8.73,3.7,77.1,12.71,97.68,5.92,4.94-1.63,11.07-7.2,17-12.59,5.59-5.08,10.87-9.88,15.12-11.41,8.74-3.13,18.86-1.67,22.26.76a11.15,11.15,0,0,1,2,2.23c3,3.9,8.59,11.15,28.78,10.62,25.39-.66,71-17,71-22.23V490.32h1.5V649.16c0,7.14-48.79,23.11-72.51,23.73-20.95.54-26.84-7.1-30-11.2a10.39,10.39,0,0,0-1.71-1.93c-2.62-1.87-12.1-3.72-20.89-.56-4,1.42-9.14,6.12-14.62,11.1-6,5.49-12.3,11.17-17.54,12.9C1257.65,685,1248.94,685.7,1238.89,685.7Z" transform="translate(-91 -68.31)" style="fill:#262626"/><path d="M1374.23,525.53l-.12-1.89c-.6-8.95-1.61-23.95,3.52-29.16a6.2,6.2,0,0,1,4.91-1.88l-.08,1.5a4.68,4.68,0,0,0-3.76,1.43c-4.66,4.74-3.64,19.88-3.1,28l.13,1.89Z" transform="translate(-91 -68.31)" style="fill:#262626"/><path d="M1280,670.85l-1-1.08.51-.49c10.4-10,11.25-10.86,11.35-15.43.1-4.78-.42-112.07-.55-123.17,0-4,.83-7.9,1.85-12.46a108.48,108.48,0,0,0,3.21-25.83h1.5a110.12,110.12,0,0,1-3.24,26.15c-1,4.48-1.87,8.34-1.82,12.13.13,11.1.65,118.43.55,123.21-.12,5.19-1.22,6.26-11.81,16.48Z" transform="translate(-91 -68.31)" style="fill:#262626"/><path d="M1293.58,495.64H1151.5a3.25,3.25,0,0,1-3.25-3.25v-42.6h1.5v42.6a1.75,1.75,0,0,0,1.75,1.75h142.08a1.75,1.75,0,0,0,1.75-1.75v-42.6h1.5v42.6A3.25,3.25,0,0,1,1293.58,495.64Z" transform="translate(-91 -68.31)" style="fill:#262626"/><path d="M1388.08,494.1h-68.87a3.73,3.73,0,0,1-3.73-3.72V449.79h1.5v40.59a2.23,2.23,0,0,0,2.23,2.22h68.87Z" transform="translate(-91 -68.31)" style="fill:#262626"/><rect x="1205.08" y="421.09" width="20.25" height="1.5" style="fill:#262626"/><path d="M1398.11,494.87c-18.85,0-29.71-6.39-30.77-13.07-1.55-9.76-1.55-17.66-1.55-32h1.5c0,14.27,0,22.13,1.53,31.78,1,6.24,12.71,12.48,32.45,11.75,11.74-.44,23.84-3.95,24.41-10.82.82-9.69,1.21-20.39,1.21-32.71h1.5c0,12.36-.4,23.11-1.21,32.84-.7,8.31-14.36,11.76-25.85,12.18C1400.23,494.85,1399.16,494.87,1398.11,494.87Z" transform="translate(-91 -68.31)" style="fill:#262626"/><path d="M1152.05,405.25c-4-3.33-4.73-4.53-4.38-22.59l1.5,0c-.35,17.91.46,18.58,3.84,21.41Z" transform="translate(-91 -68.31)" style="fill:#262626"/><path d="M1147.67,516.91c-.35-18.06.39-19.25,4.38-22.59l1,1.15c-3.38,2.83-4.19,3.5-3.84,21.41Z" transform="translate(-91 -68.31)" style="fill:#262626"/></g><g id="Front_seat_2" data-name="Front seat 2"><path d="M1066.58,266.26c-.76-9.42-8.58-16.37-15-20.55-8.95-5.82-18.31-8.27-20.2-7.6-2.9,1-4.85,10.34-5.39,16l-1.49-.14c.15-1.59,1.63-15.58,6.38-17.24,2.83-1,13,2.25,21.52,7.75,6.7,4.36,14.86,11.66,15.68,21.69Z" transform="translate(-91 -68.31)" style="fill:#262626"/><path d="M993.4,269.39c-4.73-8.89-80.76-11.3-109.66-11.48v-1.5c.26,0,26.41.18,53,1.73,13.37.78,54.08,3.15,58,10.54Z" transform="translate(-91 -68.31)" style="fill:#262626"/><path d="M971.62,394c-5,0-122.55-.11-135.92-10.14-5.74-4.31-6.52-39.53-6.52-73.41,0-60.38,3.3-71,6.52-73.41,13.37-10,130.92-10.15,135.92-10.15v1.5c-1.22,0-122,.12-135,9.85-5.92,4.43-5.92,53.67-5.92,72.21s0,67.77,5.92,72.21c13,9.73,133.8,9.84,135,9.84Z" transform="translate(-91 -68.31)" style="fill:#262626"/><path d="M833.18,377.1l-.27-1.47c18.35-3.41,48.14-9.42,50-11.05.48-.83.12-7.69-.29-15.64-.51-9.69-1.19-23-1.19-38.5s.68-28.81,1.19-38.5c.41-7.95.77-14.82.23-15.72-1.76-1.56-31.55-7.57-49.9-11l.27-1.48c14.86,2.76,49.56,9.41,50.92,11.68.74,1.23.54,5.69,0,16.56-.51,9.68-1.19,22.93-1.19,38.43s.68,28.74,1.19,38.42c.56,10.87.76,15.33,0,16.56C882.74,367.69,848,374.35,833.18,377.1Z" transform="translate(-91 -68.31)" style="fill:#262626"/><path d="M1009.32,403.19c-4,0-7.94-.13-11.77-.39-11.17-.76-23.68-2.9-25.29-6.59-3.07-7.07,4.84-16.62,11.81-25,3.47-4.19,6.75-8.14,7.72-10.82,2.17-6,2-18.49,1.84-34.3,0-5-.11-10.09-.11-15.6s.06-10.64.11-15.61c.19-15.8.33-28.29-1.84-34.3-1-2.67-4.25-6.63-7.72-10.82-7-8.43-14.88-18-11.81-25,2.68-6.15,40.9-10.21,73.8-3.36,16.94,3.52,30.52,9.3,40.34,17.17,11.86,9.5,17.88,21.84,17.88,36.68h-1.5c0-18.49-9.9-42.58-57-52.39-35.55-7.39-70.2-1.9-72.11,2.5-2.71,6.22,5.22,15.79,11.59,23.48,3.71,4.48,6.91,8.35,8,11.27,2.26,6.27,2.12,18.25,1.93,34.83,0,5-.11,10.09-.11,15.59s.06,10.63.11,15.58c.19,16.58.33,28.56-1.93,34.83-1.06,2.92-4.26,6.79-8,11.27-6.37,7.69-14.3,17.27-11.59,23.49,1.91,4.39,36.56,9.89,72.11,2.49,47.13-9.8,57-33.9,57-52.38h1.5c0,14.83-6,27.17-17.88,36.68-9.82,7.87-23.4,13.64-40.34,17.17A184.9,184.9,0,0,1,1009.32,403.19Z" transform="translate(-91 -68.31)" style="fill:#262626"/><path d="M1062.71,355.41c-.79,0-1.5,0-2.12-.09-2.17-.22-3.36-.78-3.73-1.79-2.11-5.61-.22-7.9,2.4-11,3.58-4.32,9-10.85,8.21-32,.77-21.21-4.63-27.74-8.21-32.06-2.62-3.16-4.51-5.44-2.4-11.06.37-1,1.56-1.57,3.73-1.79,10.65-1.07,47.9,7.44,50.46,11.53s3.22,11.21,3.22,33.36-.69,29.32-3.22,33.36C1108.64,347.65,1075.47,355.41,1062.71,355.41Zm.32-88.47c-.84,0-1.61,0-2.29.1-2.19.23-2.45.77-2.48.83-1.8,4.8-.4,6.5,2.15,9.57,3.73,4.5,9.35,11.29,8.56,33,.79,21.69-4.83,28.48-8.56,33-2.55,3.08-4,4.77-2.15,9.58,0,.06.29.6,2.48.82,11.57,1.16,47.28-8,49-10.83,2.32-3.71,3-11,3-32.56s-.67-28.86-3-32.57C1108.12,275.23,1076.42,266.94,1063,266.94Z" transform="translate(-91 -68.31)" style="fill:#262626"/><path d="M995.57,374.82q-5.82,0-12.47-.63l.14-1.5c21.27,2,35.78-.81,44.35-8.66,11.24-10.29,11.14-27.82,11-46.39q0-3.6,0-7.21c0-2.39,0-4.8,0-7.19.11-18.57.21-36.11-11-46.4-8.57-7.84-23.08-10.68-44.35-8.66l-.14-1.49c21.72-2.07,36.6.9,45.5,9.05,11.74,10.73,11.63,28.59,11.52,47.5q0,3.6,0,7.19t0,7.2c.11,18.91.22,36.77-11.52,47.51C1021.52,371.62,1010.65,374.82,995.57,374.82Z" transform="translate(-91 -68.31)" style="fill:#262626"/><path d="M1032.21,384.36a4.11,4.11,0,0,1-1.33-.18c-4.75-1.67-6.23-15.65-6.38-17.24l1.49-.15c.54,5.64,2.49,15,5.39,16,1.9.67,11.25-1.77,20.2-7.6,6.42-4.17,14.24-11.13,15-20.55l1.5.12c-.82,10-9,17.33-15.68,21.69C1045,381.26,1036.14,384.36,1032.21,384.36Z" transform="translate(-91 -68.31)" style="fill:#262626"/><path d="M883.75,364.46V363c28.9-.18,104.93-2.58,109.66-11.47l1.33.7c-3.94,7.39-44.65,9.77-58,10.55C910.16,364.28,884,364.46,883.75,364.46Z" transform="translate(-91 -68.31)" style="fill:#262626"/></g><g id="Front_seat" data-name="Front seat"><path d="M1066.58,543.26c-.76-9.42-8.57-16.37-15-20.55-9-5.82-18.31-8.27-20.21-7.6-2.9,1-4.85,10.34-5.39,16l-1.49-.14c.15-1.59,1.63-15.58,6.38-17.24,2.83-1,13.06,2.25,21.52,7.76,6.71,4.35,14.86,11.66,15.68,21.68Z" transform="translate(-91 -68.31)" style="fill:#262626"/><path d="M993.4,546.39c-4.73-8.89-80.76-11.3-109.66-11.48v-1.5c.26,0,26.41.18,53,1.73,13.37.78,54.08,3.15,58,10.54Z" transform="translate(-91 -68.31)" style="fill:#262626"/><path d="M971.62,671c-5,0-122.55-.11-135.92-10.14-5.74-4.31-6.52-39.53-6.52-73.41,0-60.39,3.3-71,6.52-73.41,13.37-10,130.92-10.15,135.92-10.15v1.5c-1.22,0-122,.12-135,9.85-5.92,4.43-5.92,53.67-5.92,72.21s0,67.77,5.92,72.21c13,9.73,133.8,9.84,135,9.84Z" transform="translate(-91 -68.31)" style="fill:#262626"/><path d="M833.18,654.1l-.27-1.47c18.35-3.41,48.14-9.42,50-11,.48-.83.12-7.69-.29-15.64-.51-9.69-1.19-23-1.19-38.5s.68-28.81,1.19-38.5c.41-8,.77-14.82.23-15.72-1.76-1.56-31.55-7.57-49.9-11l.27-1.48c14.86,2.76,49.56,9.41,50.92,11.68.74,1.23.54,5.69,0,16.56-.51,9.68-1.19,22.93-1.19,38.43s.68,28.74,1.19,38.42c.56,10.87.76,15.33,0,16.56C882.74,644.69,848,651.35,833.18,654.1Z" transform="translate(-91 -68.31)" style="fill:#262626"/><path d="M1009.32,680.19c-4,0-7.93-.13-11.77-.39-11.17-.76-23.68-2.9-25.29-6.59-3.07-7.07,4.84-16.62,11.82-25.05,3.46-4.19,6.74-8.14,7.71-10.82,2.17-6,2-18.49,1.84-34.3,0-5-.11-10.09-.11-15.6s.06-10.64.11-15.61c.19-15.8.33-28.29-1.84-34.3-1-2.67-4.25-6.63-7.72-10.82-7-8.43-14.88-18-11.81-25,2.68-6.15,40.9-10.21,73.8-3.36,16.94,3.52,30.52,9.3,40.34,17.17,11.86,9.5,17.88,21.84,17.88,36.68h-1.5c0-18.49-9.9-42.58-57-52.39-35.55-7.39-70.2-1.9-72.11,2.5-2.71,6.22,5.22,15.79,11.59,23.48,3.71,4.48,6.91,8.35,8,11.27,2.26,6.27,2.12,18.25,1.93,34.83,0,5-.11,10.09-.11,15.59s.06,10.63.11,15.58c.19,16.58.33,28.56-1.93,34.83-1.06,2.92-4.26,6.79-8,11.27-6.37,7.69-14.3,17.27-11.59,23.49,1.91,4.39,36.56,9.89,72.12,2.49,47.13-9.8,57-33.9,57-52.38h1.5c0,14.83-6,27.17-17.88,36.68-9.82,7.87-23.4,13.64-40.34,17.17A184.9,184.9,0,0,1,1009.32,680.19Z" transform="translate(-91 -68.31)" style="fill:#262626"/><path d="M1062.71,632.42c-.79,0-1.5,0-2.12-.1-2.17-.22-3.36-.78-3.73-1.79-2.11-5.61-.22-7.9,2.4-11,3.58-4.32,9-10.85,8.21-32,.77-21.21-4.63-27.74-8.21-32.06-2.62-3.16-4.51-5.44-2.4-11.06.37-1,1.56-1.57,3.73-1.79,10.65-1.06,47.9,7.44,50.46,11.53s3.22,11.21,3.22,33.36-.69,29.32-3.22,33.36C1108.64,624.65,1075.47,632.42,1062.71,632.42Zm.32-88.48c-.84,0-1.61,0-2.29.1-2.19.23-2.45.77-2.48.83-1.8,4.8-.4,6.5,2.15,9.57,3.73,4.5,9.35,11.29,8.56,33,.79,21.69-4.83,28.48-8.56,33-2.55,3.08-4,4.77-2.15,9.58,0,.06.29.6,2.48.82,11.58,1.16,47.28-8,49-10.83,2.32-3.71,3-11,3-32.56s-.67-28.86-3-32.57C1108.12,552.23,1076.42,543.94,1063,543.94Z" transform="translate(-91 -68.31)" style="fill:#262626"/><path d="M995.57,651.82q-5.82,0-12.47-.63l.14-1.5c21.27,2,35.78-.81,44.35-8.66,11.24-10.28,11.14-27.82,11-46.39q0-3.6,0-7.21c0-2.39,0-4.8,0-7.19.11-18.57.21-36.11-11-46.4-8.57-7.84-23.08-10.68-44.35-8.66l-.14-1.49c21.72-2.06,36.6.9,45.5,9,11.74,10.73,11.63,28.59,11.52,47.5q0,3.6,0,7.19t0,7.2c.11,18.91.22,36.77-11.52,47.51C1021.52,648.62,1010.65,651.82,995.57,651.82Z" transform="translate(-91 -68.31)" style="fill:#262626"/><path d="M1032.21,661.36a4.11,4.11,0,0,1-1.33-.18c-4.75-1.67-6.23-15.65-6.38-17.24l1.49-.15c.54,5.64,2.49,15,5.39,16,1.9.67,11.25-1.77,20.2-7.6,6.42-4.17,14.24-11.13,15-20.55l1.5.12c-.82,10-9,17.33-15.68,21.69C1045,658.27,1036.14,661.36,1032.21,661.36Z" transform="translate(-91 -68.31)" style="fill:#262626"/><path d="M883.75,641.46V640c28.9-.18,104.93-2.58,109.66-11.47l1.33.7c-3.94,7.39-44.65,9.77-58,10.55C910.16,641.28,884,641.46,883.75,641.46Z" transform="translate(-91 -68.31)" style="fill:#262626"/></g></g></svg>